<?xml version="1.0" standalone="no"?><!DOCTYPE svg PUBLIC "-//W3C//DTD SVG 1.1//EN" "http://www.w3.org/Graphics/SVG/1.1/DTD/svg11.dtd"><svg t="1481079177525" class="icon" style="" viewBox="0 0 1024 1024" version="1.1" xmlns="http://www.w3.org/2000/svg" p-id="12172" xmlns:xlink="http://www.w3.org/1999/xlink" width="32" height="32"><defs><style type="text/css"></style></defs><path d="M765.459818 104.373249l-14.597596-21.900757c-2.089734 2.739776-4.192555 5.449013-6.273563 8.193152-20.439252 28.344466-41.43693 56.383543-62.822889 84.169583-11.151063 15.164747-22.197421 30.412386-33.248141 45.660025l106.960331-102.671796C758.815425 113.342962 762.157253 108.871194 765.459818 104.373249z" p-id="12173" fill="#ffffff"></path><path d="M366.089478 521.521594l424.372977-407.397709L715.227683 1.252095 148.015525 516.888406l-5.182888 4.716079 532.720647 498.355654 2.377672 2.220615 203.371652-36.973888L366.089478 521.521594zM725.104837 1000.467593l-26.075862 4.737893c22.921629-34.949595 45.219392-70.418351 67.442989-105.943822l18.397508 16.560812c-14.536518 19.174069-29.160291 38.282698-43.871317 57.338974C735.714925 982.266406 730.405518 991.362637 725.104837 1000.467593zM796.879987 926.624522l4.698629 4.227457c-14.130787 21.176549-28.248486 42.322559-42.383636 63.416216l-8.563981 1.557484C766.06187 972.821159 781.457841 949.733747 796.879987 926.624522zM807.36792 936.069769l5.754402 5.182888-20.949688 47.02555-16.565174 3.010263C784.882561 975.796521 799.017711 949.480711 807.36792 936.069769zM804.37947 984.487021c3.507611-13.153542 7.905214-26.31581 12.93977-39.46499l19.104266 17.193403c-4.798971 6.936694-9.672107 13.825398-14.606322 20.666113l-18.694172 3.398544C803.541831 985.686763 803.965013 985.089073 804.37947 984.487021zM670.789214 913.815633c-11.85782 16.840024-23.999216 33.483727-36.293306 50.040176l-15.989298-14.964063c24.08647-39.229404 48.242743-78.423906 72.569162-117.49189l40.389882 36.354384c-26.006058 38.020936-51.737267 76.212017-77.25034 114.542705l-16.3165-15.265089c12.948495-20.609398 25.870815-41.227521 38.876025-61.797654C674.754909 908.078682 672.796057 910.975515 670.789214 913.815633zM409.712121 578.175624l7.665265 6.89743c-20.439252 29.230094-40.891593 58.434012-61.448638 87.489598-4.34525 6.142682-8.673049 12.333355-12.996485 18.537115l-8.402561-7.857224C359.593417 648.218783 384.648406 613.195022 409.712121 578.175624zM312.131597 662.284129l-10.269797-9.606667c23.676376-35.734881 47.68868-71.325792 72.010736-106.759647l13.362952 12.023603C362.00599 592.485282 336.946638 627.264732 312.131597 662.284129zM427.839142 594.487762l22.720945 20.45234c-25.07244 35.272434-50.131793 70.810994-75.204233 106.489159l-24.282792-22.716582C376.39854 663.767448 401.942152 628.992361 427.839142 594.487762zM455.769152 619.625643l2.111547 1.902137c-15.060043 19.723769-30.181163 39.425725-45.420076 59.132044 10.954741-15.522489 21.892032-31.053703 32.859861-46.571829C448.753929 629.23231 452.278991 624.442064 455.769152 619.625643zM441.965567 655.281995c7.185368-9.571765 14.270394-19.213334 21.394684-28.82l21.390321 19.252598c-6.853803 9.453972-13.807947 18.864317-20.557045 28.388093-18.541478 26.150027-37.034966 52.317506-55.541542 78.476259l-23.152852-21.660809C404.276196 705.67555 423.066348 680.441689 441.965567 655.281995zM488.650826 649.222204l25.674493 23.109225c-21.543016 31.455071-43.064218 62.914506-64.519979 94.360852-3.385456 4.964753-6.757823 9.933869-10.130191 14.907348l-30.809392-28.815638C435.617838 718.266304 462.204135 683.757342 488.650826 649.222204zM525.995544 682.828087l15.430872 13.890839c-19.256961 27.7206-38.43103 55.480464-57.369513 83.419198-3.882804 5.732589-7.599824 11.578607-11.473903 17.315559 23.720003-32.903488 47.304763-65.907318 70.74119-99.024579l16.538998 14.885534c-3.354917 4.750981-6.705471 9.510687-10.060388 14.244218-22.140706 31.263113-44.935816 62.35608-68.07558 93.383607l-30.024106-28.087067C476.509431 756.204348 501.237218 719.496585 525.995544 682.828087zM571.712283 723.977079l15.260727 13.733782c-25.137881 37.078593-50.171057 74.231351-75.025362 111.49754l-17.647124-16.508459C519.93139 796.240852 545.749852 760.00426 571.712283 723.977079zM604.009356 753.037028l17.337372 15.60538c-26.821883 35.870124-53.704845 71.692259-80.644521 107.462042l-11.979976-11.207778C553.886289 827.608669 578.97618 790.316304 604.009356 753.037028zM574.155396 852.528415c17.620948-26.237281 35.350963-52.409122 53.111517-78.554787l15.70136 14.126425c-26.254732 36.664136-52.492014 73.345723-78.733658 110.022947l-13.899564-13.005211C558.257715 874.245939 566.202192 863.378451 574.155396 852.528415zM649.979132 794.417243l16.879289 15.186561c-25.264399 37.920594-50.306301 75.989519-75.274036 114.106435l-20.866797-19.523085C597.177367 867.623359 623.593519 831.029026 649.979132 794.417243zM675.269708 817.181815l9.275102 8.345846c-27.471926 36.070809-54.804245 72.215783-81.975145 108.4611l-8.738489-8.175701C620.89737 889.541567 648.042093 853.335515 675.269708 817.181815zM728.843671 44.988169c-40.974484 51.414427-82.777881 102.239889-121.374694 155.272878-58.263867 80.068644-117.465714 159.517785-175.694679 239.638782l3.032077-2.914284c89.121248-117.683849 179.983214-234.128691 270.840817-350.534269 8.921723-11.979976 17.987415-23.81162 27.096734-35.612725l40.965759 61.457364L439.618434 433.011124c0.309752-0.440633 0.619503-0.881266 0.933618-1.321898-0.314114 0.449358-0.636954 0.894354-0.951069 1.339349l-87.480873 83.981987-5.012743 4.816421 25.569788 23.013246c-25.020088 34.57004-50.210321 69.031012-75.566337 103.387279l-32.641726-30.538904c26.341986-34.644206 52.352407-69.558899 77.695335-104.992753 0.929255-1.313173 1.854148-2.630708 2.787766-3.926431l15.614105-22.031638c59.703558-84.082329 118.255363-169.067737 178.395191-252.870853-87.821163 116.523371-179.045233 230.407308-267.315755 346.577299-6.509149 8.577069-12.935407 17.206491-19.339852 25.862089l-14.266031-13.345501c10.448668-13.598538 20.901699-27.18835 31.428895-40.721448 98.287282-126.23038 198.524691-250.968716 295.48135-378.241781 15.147297-19.872101 30.207339-39.809643 45.228117-59.773361l102.628169-93.300715L728.843671 44.988169zM334.241763 365.07515l158.557991-144.139266c-31.346004 38.273972-62.325541 76.901324-92.934248 115.851515-57.866861 82.830234-113.303698 167.161237-167.348833 251.016705l-33.457551-31.298014C242.747206 491.549841 287.51724 427.474857 334.241763 365.07515zM189.797109 547.841767l-20.87116-19.527448c8.284768-11.853458 16.560812-23.702552 24.84558-35.547285l91.843573-83.493364C253.339843 455.225996 221.426688 501.431358 189.797109 547.841767zM193.300357 493.198942c-8.27168 11.569882-16.547723 23.135401-24.836855 34.68347l-6.561502-6.13832L193.300357 493.198942zM665.410004 992.771789c26.355074-37.746086 52.88902-75.374379 79.418602-112.98522l15.033866 13.533097c-23.855247 37.602117-47.535986 75.339477-71.753337 112.675469l1.055774 1.012147-7.154829 1.300085L665.410004 992.771789z" p-id="12174" fill="#ffffff"></path></svg>