<?xml version="1.0" standalone="no"?>
<!DOCTYPE svg PUBLIC "-//W3C//DTD SVG 1.1//EN" "http://www.w3.org/Graphics/SVG/1.1/DTD/svg11.dtd" >
<svg xmlns="http://www.w3.org/2000/svg">
<metadata>
Created by FontForge 20120731 at Sun Dec 11 21:36:58 2016
 By admin
</metadata>
<defs>
<font id="iconfont" horiz-adv-x="1024" >
  <font-face 
    font-family="iconfont"
    font-weight="500"
    font-stretch="normal"
    units-per-em="1024"
    panose-1="2 0 6 3 0 0 0 0 0 0"
    ascent="896"
    descent="-128"
    x-height="792"
    bbox="-7.0566 -212 1934 896.302"
    underline-thickness="0"
    underline-position="0"
    unicode-range="U+0078-E8F2"
  />
<missing-glyph 
 />
    <glyph glyph-name=".notdef" 
 />
    <glyph glyph-name=".notdef" 
 />
    <glyph glyph-name=".null" horiz-adv-x="0" 
 />
    <glyph glyph-name="nonmarkingreturn" horiz-adv-x="341" 
 />
    <glyph glyph-name="x" unicode="x" horiz-adv-x="1001" 
d="M281 543q-27 -1 -53 -1h-83q-18 0 -36.5 -6t-32.5 -18.5t-23 -32t-9 -45.5v-76h912v41q0 16 -0.5 30t-0.5 18q0 13 -5 29t-17 29.5t-31.5 22.5t-49.5 9h-133v-97h-438v97zM955 310v-52q0 -23 0.5 -52t0.5 -58t-10.5 -47.5t-26 -30t-33 -16t-31.5 -4.5q-14 -1 -29.5 -0.5
t-29.5 0.5h-32l-45 128h-439l-44 -128h-29h-34q-20 0 -45 1q-25 0 -41 9.5t-25.5 23t-13.5 29.5t-4 30v167h911zM163 247q-12 0 -21 -8.5t-9 -21.5t9 -21.5t21 -8.5q13 0 22 8.5t9 21.5t-9 21.5t-22 8.5zM316 123q-8 -26 -14 -48q-5 -19 -10.5 -37t-7.5 -25t-3 -15t1 -14.5
t9.5 -10.5t21.5 -4h37h67h81h80h64h36q23 0 34 12t2 38q-5 13 -9.5 30.5t-9.5 34.5q-5 19 -11 39h-368zM336 498v228q0 11 2.5 23t10 21.5t20.5 15.5t34 6h188q31 0 51.5 -14.5t20.5 -52.5v-227h-327z" />
    <glyph glyph-name="shouye" unicode="&#xe633;" 
d="M983 258l-11 -11q-8 -7 -18 -7t-17 7l-89 89v-419q0 -27 -18.5 -45.5t-45.5 -18.5h-544q-27 0 -46 18.5t-19 45.5v419l-88 -89q-7 -7 -17.5 -7t-17.5 7l-11 11q-7 7 -7 17.5t7 17.5l447 448q10 9 24 5q14 4 23 -5l448 -448q7 -7 7 -17.5t-7 -17.5v0zM512 672l-272 -274
v-449q0 -13 9 -22.5t23 -9.5h480q13 0 22.5 9.5t9.5 22.5v449l-272 274v0zM512 221q-40 0 -68 28.5t-28 68t28 68t68 28.5t68 -28.5t28 -68t-28 -68t-68 -28.5v0zM512 349q-13 0 -22.5 -9t-9.5 -22.5t9.5 -23t22.5 -9.5t22.5 9.5t9.5 23t-9.5 22.5t-22.5 9v0z" />
    <glyph glyph-name="ku1" unicode="&#xe62e;" 
d="M512 -147q-91 0 -173.5 35t-142.5 95t-95.5 143t-35.5 174t35.5 174t95.5 143t142.5 95t173.5 35t173.5 -35t142.5 -95t95.5 -143t35.5 -174t-35.5 -174t-95.5 -143t-142.5 -95t-173.5 -35zM512 684q-104 0 -192 -51.5t-139.5 -140t-51.5 -192.5t51.5 -192.5t139.5 -140
t192 -51.5t192 51.5t139.5 140t51.5 192.5t-51.5 192.5t-139.5 140t-192 51.5zM639.5 364q-26.5 0 -45 18.5t-18.5 45t18.5 45.5t45 19t45 -19t18.5 -45.5t-18.5 -45t-45 -18.5zM384.5 364q-26.5 0 -45 18.5t-18.5 45t18.5 45.5t45 19t45 -19t18.5 -45.5t-18.5 -45
t-45 -18.5zM640 44q0 28 -37 73t-63 45h-56q-26 0 -63 -45t-37 -73h-61q-2 6 -2 32q0 40 57 100t96 60h76q39 0 96 -60t57 -100q0 -4 1 -11t1 -10.5t-1 -10.5h-64z" />
    <glyph glyph-name="shouye1" unicode="&#xe700;" 
d="M661 151h-112v-112h112v112zM475 300h-112v-93h112v93zM661 300h-112v-93h112v93zM870 748h-716q-37 0 -63.5 -26.5t-26.5 -63.5v-716q0 -37 26.5 -63.5t63.5 -26.5h716q37 0 63.5 26.5t26.5 63.5v716q0 37 -26.5 63.5t-63.5 26.5zM904 356v-420q0 -11 -8.5 -19.5
t-19.5 -8.5h-728q-11 0 -19.5 8.5t-8.5 19.5v420v308q0 11 8.5 19.5t19.5 8.5h728q11 0 19.5 -8.5t8.5 -19.5v-308zM475 151h-112v-112h112v112zM781 599h-90v-60l-179 119l-392 -302h112v-411h560v411h112l-123 93v150zM755 -17h-486v373h486v-373z" />
    <glyph glyph-name="shouye2" unicode="&#xe6b0;" 
d="M806 666h66v-180l-66 49v131zM962 257l-90 72v-467h-263v65v134h-197v-134v-65h-264v469l-89 -74l-42 50l485 408l502 -408zM806 382l-303 243l-289 -239v-459h132v134v65h66h197h66v-199h131v455z" />
    <glyph glyph-name="xiao" unicode="&#xe70b;" 
d="M512 796q-101 0 -193 -39t-158.5 -105.5t-105.5 -158.5t-39 -193t39 -193t105.5 -158.5t158.5 -105.5t193 -39t193 39t158.5 105.5t105.5 158.5t39 193t-39 193t-105.5 158.5t-158.5 105.5t-193 39zM213 509q12 41 32 69t46.5 40.5t50.5 17t55 4.5q52 0 66.5 -45
t-6.5 -114q-19 -72 -50.5 -115.5t-81.5 -43.5q-37 0 -68 21.5t-46 63t2 102.5zM822 92q-136 -156 -312 -156q-31 0 -67 6q-99 17 -179 74.5t-100 108.5q-4 9 0 18t13 12.5t18 -0.5t13 -13q15 -38 85.5 -88t157.5 -65q189 -33 335 135q7 7 16.5 7.5t16.5 -5.5q8 -7 8.5 -17
t-5.5 -17zM692 322q-52 0 -80.5 45.5t-28.5 113.5q0 61 28 101t61 40q58 0 112 -44t54 -105q0 -63 -45 -107t-101 -44zM729 565q-46 0 -87 -111h134q0 17 -0.5 25l-1.5 24t-4 24.5t-8 18.5t-13.5 14.5t-19.5 4.5zM376 588q-80 0 -102 -105q8 -7 55 -9.5t81 2.5q9 9 10 36
t-10.5 51.5t-33.5 24.5z" />
    <glyph glyph-name="shouye3" unicode="&#xe6a2;" 
d="M798 236q-13 0 -21.5 -9t-8.5 -22v-289h-505v289q0 13 -9 22t-22 9t-22 -9t-9 -22v-320q0 -12 9 -21t22 -9h566q13 0 22 9t9 21v320q0 13 -9 22t-22 9zM946 357l-411 383q-8 8 -20.5 8t-20.5 -8l-412 -383q-9 -9 -9.5 -22t7.5 -22q10 -10 23 -10q12 0 21 9l390 364
l390 -364q9 -9 21.5 -8.5t21.5 9.5t8.5 22t-9.5 22z" />
    <glyph glyph-name="quxiao" unicode="&#xe62b;" 
d="M274.5 716q21.5 0 36.5 -15l171 -171q15 -15 36.5 -15t36.5 15l158 159q15 15 36.5 15t36.5 -15l37 -37q15 -15 15 -36.5t-15 -36.5l-159 -158q-15 -16 -15 -37t15 -37l159 -158q15 -15 15 -36.5t-15 -36.5l-37 -37q-15 -15 -36.5 -15t-36.5 15l-158 159q-15 15 -36.5 15
t-36.5 -15l-171 -171q-15 -15 -36.5 -15t-36.5 15l-37 37q-15 15 -15 36.5t15 36.5l171 170q15 16 15 37t-15 37l-171 170q-15 15 -15 36.5t15 36.5l37 37q15 15 36.5 15zM274 740q-31 0 -53 -22l-37 -37q-22 -22 -22 -53t22 -53l171 -171q8 -8 8 -20t-8 -20l-171 -171
q-22 -22 -22 -53t22 -53l37 -37q22 -22 53.5 -22t53.5 22l170 171q8 8 20 8t20 -8l158 -159q22 -22 53.5 -22t53.5 22l37 37q22 22 22 53.5t-22 53.5l-159 158q-8 8 -8 20t8 20l159 158q22 22 22 53.5t-22 53.5l-37 36q-22 23 -53 23t-54 -22l-158 -159q-8 -8 -20 -8t-20 8
l-170 171q-23 22 -54 22v0z" />
    <glyph glyph-name="quxiao1" unicode="&#xe60d;" horiz-adv-x="1025" 
d="M1014 802q-10 10 -24 10t-24 -10l-454 -454l-454 454q-10 10 -24 10t-24 -10t-10 -24t10 -24l454 -454l-454 -454q-10 -10 -10 -24t10 -24t24 -10t24 10l454 454l48 48l454 454q10 10 10 24t-10 24zM641 171q10 10 24.5 10t23.5 -10l325 -325q10 -10 10 -24t-10 -24v0
q-10 -10 -24 -10t-24 10l-325 325q-10 10 -10 24t10 24v0z" />
    <glyph glyph-name="quxiao2" unicode="&#xe619;" 
d="M898 -212l-898 897l129 127l895 -899zM0 -86l897 898l127 -129l-899 -895z" />
    <glyph glyph-name="publish" unicode="&#xe60e;" 
d="M348 -81l185 128l-358 495zM676 -81v205l-532 532zM697 161l184 127l-622 310zM118 688q11 9 26 9q9 0 18 -4l737 -369q21 -10 22.5 -33.5t-17.5 -36.5l-187 -130v0v-205q0 -13 -8 -24t-21 -15q-6 -2 -12 -2q-21 0 -33 17l-86 119l-185 -129q-11 -7 -24 -7q-7 0 -14 3
q-19 7 -25 27l-205 737q-7 26 14 43v0v0zM118 688z" />
    <glyph glyph-name="shouhui02" unicode="&#xe608;" 
d="M765 708l-14 22q-1 -2 -3 -4.5t-3 -4.5l-63 -84l-33 -45l106 102q8 10 10 14zM366 290l424 408l-75 113l-567 -516l-5 -5l533 -498l2 -2l203 37zM725 -188l-26 -5q25 38 67 106l19 -17q-22 -28 -44 -57q-1 -2 -16 -27zM797 -115l5 -4q-27 -40 -43 -63l-8 -2q13 20 46 69z
M807 -124l6 -5l-21 -47l-16 -3q4 7 15.5 27.5t15.5 27.5zM804 -172q5 18 13 39l19 -17q-7 -10 -14 -21l-19 -3q1 1 1 2zM671 -102q-16 -22 -37 -50l-15 15q41 68 72 118l40 -37q-37 -55 -77 -114l-16 15q31 49 39 62q-1 -2 -3 -4.5t-3 -4.5zM410 234l7 -7q-38 -55 -61 -88
q-5 -7 -13 -18l-8 8q9 13 35 49t40 56zM312 150l-10 9q35 54 72 107l13 -12q-39 -54 -75 -104zM428 218l23 -21q-33 -46 -76 -106l-24 22q41 57 77 105zM456 192l2 -2q-24 -31 -46 -59q3 4 15 21t18 26q2 2 11 14zM442 157q2 2 21 29l22 -20q-20 -27 -21 -28
q-10 -14 -55 -79l-24 22zM489 163l25 -23q-36 -54 -64 -95q-4 -5 -10 -15l-31 29zM526 129l15 -14q-34 -49 -57 -83l-6 -9t-5 -8q36 50 70 99l17 -15q-10 -14 -10 -15q-30 -41 -68 -93l-30 28q1 2 74 110zM572 88l15 -14q-41 -60 -75 -111l-18 16q38 53 78 109zM604 59
l17 -16q-40 -53 -80 -107l-12 11q35 52 75 112zM574 -41q22 33 53 79l16 -14q-18 -24 -79 -110l-14 13zM650 18l17 -16q-32 -47 -75 -114l-21 20q37 51 79 110zM675 -5l10 -9q-43 -55 -82 -108l-9 8q40 54 81 109zM729 767q-97 -121 -122 -155q-28 -39 -86.5 -119
t-88.5 -121l3 3q90 119 271 351q10 14 27 35l41 -61l-334 -321q0 1 1 1q-1 0 -1 -0.5v-0.5l-88 -84l-5 -5l26 -23q-38 -51 -76 -103l-33 30q44 58 78 105q2 4 3 4l16 22q23 33 83.5 119.5t94.5 133.5q-47 -62 -137 -177.5t-130 -168.5q-9 -11 -20 -26l-14 13q20 26 31 41
q24 30 131.5 167t164.5 211q20 26 45 60l103 93zM334 447l159 144q-47 -57 -93 -116q-72 -103 -167 -251l-34 31q72 108 135 192zM190 264l-21 20q24 34 25 35l92 84q-47 -67 -96 -139zM193 319q-14 -21 -25 -35l-6 6zM665 -181q28 39 80 113l15 -13q-60 -94 -72 -113l1 -1
l-7 -1z" />
    <glyph glyph-name="left" unicode="&#xe7eb;" 
d="M512 -212q-138 0 -256 69t-187 187t-69 256t69 256t187 187t256 69t256 -69t187 -187t69 -256t-69 -256t-187 -187t-256 -69zM512 727q-115 0 -213.5 -57.5t-156 -156t-57.5 -213.5t57.5 -213.5t156 -156t213.5 -57.5t213.5 57.5t156 156t57.5 213.5t-57.5 213.5
t-156 156t-213.5 57.5zM555 129q-17 0 -30 13l-128 128q-13 13 -13 30t13 30l128 128q13 13 30 13t29.5 -13t12.5 -30t-12 -30l-99 -98l99 -98q12 -13 12 -30t-12.5 -30t-29.5 -13z" />
    <glyph glyph-name="left1" unicode="&#xe672;" horiz-adv-x="1280" 
d="M975 812q22 0 26.5 -10.5t-10.5 -25.5l-499 -476l499 -476q15 -15 10.5 -25.5t-26.5 -10.5h-108q-22 0 -48.5 10.5t-42.5 25.5l-499 476l499 476q16 15 42.5 25.5t48.5 10.5h108z" />
    <glyph glyph-name="biaoqing" unicode="&#xe7ed;" horiz-adv-x="1025" 
d="M512 812q-104 0 -199 -40.5t-163.5 -109t-109 -163.5t-40.5 -199q0 -164 96 -298l5 -7l43 43l-4 5q-80 116 -80 257q0 92 36 175.5t96.5 144t144 96.5t175.5 36t175.5 -36t144 -96.5t96.5 -144t36 -175.5t-36 -175.5t-96.5 -144t-144 -96.5t-175.5 -36q-130 0 -241 70
l-5 3l-43 -43l7 -5q128 -85 282 -85q104 0 199 40.5t163.5 109t109 163.5t40.5 199t-40.5 199t-109 163.5t-163.5 109t-199 40.5v0zM242 217l2 -7q29 -86 103 -139.5t165 -53.5t165 53.5t103 139.5l2 7l-7 3q-19 6 -45 12l-6 1l-2 -6q-23 -67 -81 -108t-129 -41t-128.5 41
t-81.5 108l-2 6l-6 -1q-26 -7 -45 -13l-7 -2v0zM665 392q0 22 16 37.5t38 15.5t37.5 -15.5t15.5 -37.5t-15.5 -37.5t-37.5 -15.5t-38 15.5t-16 37.5v0zM252 392q0 22 16 37.5t37.5 15.5t37.5 -15.5t16 -37.5t-16 -37.5t-37.5 -15.5t-37.5 15.5t-16 37.5v0zM252 392z" />
    <glyph glyph-name="huifuwode" unicode="&#xe602;" 
d="M512 543q-124 0 -228.5 -47t-165 -130t-60.5 -182q0 -59 23 -119.5t60 -93.5q11 -10 -1.5 -48t-26 -78t-4.5 -51q10 -14 52.5 5t89.5 41.5t64 15.5q30 -13 87 -22t110 -9q124 0 227 47.5t163.5 130t63.5 181.5q2 69 -33 134.5t-95.5 115t-146 79.5t-179.5 30zM512 -139
q-45 0 -101 9.5t-88 21.5q-10 3 -32.5 -2.5t-47.5 -16t-47.5 -21t-37.5 -19l-15 -8.5q1 3 3 8t7 20t9 28.5t8.5 31.5t6.5 31.5t1 25.5t-5 17q-33 36 -55 90t-22 106q0 90 56 165t151.5 117t208.5 42q112 0 208.5 -45.5t152 -120t55.5 -158.5q0 -94 -56 -168t-150.5 -114
t-209.5 -40zM311 189zM247 189q0 27 19 45.5t45.5 18.5t45.5 -18.5t19 -45.5t-19 -45.5t-45.5 -18.5t-45.5 18.5t-19 45.5zM504 189zM440 189q0 27 18.5 45.5t45.5 18.5t45.5 -18.5t18.5 -45.5t-18.5 -45.5t-45.5 -18.5t-45.5 18.5t-18.5 45.5zM697 189zM632 189
q0 27 19 45.5t45.5 18.5t45.5 -18.5t19 -45.5t-19 -45.5t-45.5 -18.5t-45.5 18.5t-19 45.5z" />
    <glyph glyph-name="ok" unicode="&#xe624;" 
d="M718 269q1 5 7.5 33t9 42.5t5.5 41.5t3 52q0 80 -18 151.5t-47.5 119t-66 75.5t-73 28t-72.5 -28t-65.5 -75.5t-48 -119t-18.5 -151.5q0 -82 32 -168q-28 -19 -48.5 -38t-41.5 -47t-32.5 -65t-12.5 -82q66 35 154 62q40 13 86 23q34 8 69 8t69 -8q48 -12 83 -22
q36 -11 74.5 -26.5t59 -25.5l20.5 -10q-1 58 -21 105t-45 73.5t-62 51.5v0zM618 147q-34 9 -78 9q-38 0 -77 -9q-66 -15 -89 -23q-44 -14 -105 -39q10 49 35 86q26 38 83 79l16 11l-6 16q-29 80 -29 161q0 154 63 258q26 45 58 69q27 20 50.5 20t50.5 -20q31 -23 58 -69
q64 -106 64 -258q0 -56 -20 -138q-2 -9 -6 -26l-3 -15l14 -10q45 -31 74 -69t39 -96q-62 26 -104 40q-48 15 -88 23v0zM540 107q-48 0 -74 -38t-26 -104q0 -24 10.5 -51t25 -48.5t29 -39.5t24.5 -28l11 -10l10.5 10.5t23.5 27t30.5 40.5t24 47.5t10.5 51.5q0 65 -27 103.5
t-72 38.5v0zM473 -35q0 59 22 91q17 26 45 26q26 0 44 -26q22 -34 22 -91q0 -58 -66 -134q-67 74 -67 134v0zM540 648q-43 0 -72.5 -18t-29.5 -44q0 -13 9 -21q13 -11 36 -11q21 0 31 2q18 4 26 4q9 0 25 -4q14 -3 31 -3q24 0 36 13q9 8 9 21q0 25 -30 43t-71 18v0zM573 583
q-25 5 -34 5q-18 0 -35 -5q-34 -9 -34 4q0 16 19 26t50 10t49.5 -9.5t18.5 -26.5q1 -12 -34 -4v0zM573 583z" />
    <glyph glyph-name="9" unicode="&#xe609;" 
d="M592 98l58 60q12 9 12 24q0 17 -12 26l-174 176l174 176q12 9 12 26q0 15 -12 24l-58 60q-10 10 -26 10q-14 0 -24 -10l-260 -260q-12 -12 -12 -26t12 -26l260 -260q10 -10 24 -10q16 0 26 10v0zM892 164q-61 -99 -160 -160q-98 -58 -220 -58t-220 58q-99 61 -160 160
q-58 98 -58 220t58 220q61 99 160 160q98 58 220 58t220 -58q99 -61 160 -160q58 -98 58 -220t-58 -220z" />
    <glyph glyph-name="biaoqing1" unicode="&#xe7b3;" 
d="M511.5 807q-103.5 0 -197.5 -40t-161.5 -108t-108 -162t-40.5 -197t40.5 -197t108 -161.5t161.5 -108t197.5 -40.5t197 40.5t161.5 108t108 161.5t40 197t-40 197t-108 162t-161.5 108t-197 40zM511.5 -165q-94.5 0 -180.5 37t-148.5 99.5t-99 148.5t-36.5 180.5
t36.5 180.5t99 148t148.5 99t180.5 37t180.5 -37t148.5 -99t99 -148t36.5 -180.5t-36.5 -180.5t-99 -148.5t-148.5 -99.5t-180.5 -37zM250 284q0 32 -13.5 54.5t-33 22.5t-33 -22.5t-13.5 -55t13.5 -55t33 -22.5t33 22.5t13.5 54.5v1zM678 284q0 32 -14 54.5t-33 22.5
t-32.5 -22.5t-13.5 -55t13.5 -55t32.5 -22.5t33 22.5t14 54.5v1zM443 66q0 10 -19.5 16.5t-46.5 6.5q-28 0 -47.5 -7t-19.5 -16.5t19.5 -16t47.5 -6.5q27 0 46.5 6.5t19.5 15.5v1z" />
    <glyph glyph-name="fanhui" unicode="&#xe627;" 
d="M956 29q-6 -15 -1 -33t0.5 -36t-25.5 -22q-22 -5 -29.5 7t-8 35t-3.5 31q-22 52 -68 93t-100 64.5t-108 34.5t-101 10q-15 -1 -22.5 -7t-9 -11.5t-2 -18t-1.5 -17.5q-2 -14 2.5 -41.5t1.5 -46.5t-22 -28q-11 -7 -23.5 -6t-21 5t-18.5 12.5t-17.5 16.5t-17 18t-16.5 16
q-38 28 -78 60.5t-92.5 76t-76.5 63.5q-20 16 -28.5 29.5t-4 30t26.5 33.5q122 95 297 239q1 1 4 3q10 9 16 13t15.5 9t19 4.5t19.5 -5.5q12 -5 15 -14.5t1 -27.5t-2 -21q1 -23 1 -31t2.5 -23t4.5 -19t10 -13.5t16 -12t24.5 -8.5t33 -9.5t45.5 -10.5q163 -35 248 -152
t94 -290zM896 118q-67 283 -368 318q-5 0 -14 1q-25 3 -35 4t-23 6.5t-16 9.5t-8 17.5t-6 26t-3 39.5q-3 30 -10.5 34.5t-32.5 -15.5q-82 -70 -215 -174q-23 -20 -21.5 -33.5t23.5 -31.5q28 -23 90 -76t96 -80q3 -2 15 -15t21.5 -17t20.5 1q7 3 11 8t4.5 13t0 13.5t-2 15
t-1.5 13.5q-5 45 14.5 61t63.5 10l24 -3q48 -7 73.5 -11t68 -14t70.5 -22t61 -33t60 -49q3 -3 8 -5.5t14.5 -5.5t16.5 -6z" />
    <glyph glyph-name="xiangji" unicode="&#xe7c6;" 
d="M511 783q-98 0 -187 -38.5t-154 -103t-103 -154t-38 -187.5t38 -187t103 -153.5t154 -103t187 -38.5t187.5 38.5t154 103t102.5 153.5t38 187t-38 187.5t-102.5 154t-154 103t-187.5 38.5zM511 -143q-90 0 -172 35t-141.5 94.5t-95 141.5t-35.5 172t35.5 172.5t95 142
t141.5 94.5t172 35t172 -35t141.5 -94.5t95 -142t35.5 -172.5t-35.5 -172t-95 -141.5t-141.5 -94.5t-172 -35v0zM506 371q-39 0 -66.5 -28.5t-27.5 -68.5t27.5 -68t66.5 -28t66.5 28t27.5 68t-27.5 68.5t-66.5 28.5zM722 444h-83v17q0 22 -14.5 37t-35.5 15h-166
q-20 0 -34.5 -15t-14.5 -37v-17h-83q-21 0 -35.5 -14.5t-14.5 -36.5v-272q0 -21 14.5 -36t35.5 -15h431q21 0 35.5 15t14.5 36v272q0 22 -14.5 36.5t-35.5 14.5zM726 379v-239q0 -9 -7 -16t-17 -7h-391q-10 0 -17 7t-7 16v239q0 10 7 17t17 7h101v39q0 10 7 17t17 7h141
q10 0 16.5 -7t6.5 -17v-39h102q10 0 17 -7t7 -17v0z" />
    <glyph glyph-name="biaoqing2" unicode="&#xe7cd;" 
d="M512 783q-98 0 -187.5 -38t-154.5 -103t-103 -154t-38 -187.5t38 -188t103 -154t154.5 -103t187.5 -38.5t187.5 38.5t154.5 103t103 154t38 188t-38 187.5t-103 154t-154.5 103t-187.5 38zM512 -143q-90 0 -172 35.5t-141.5 94.5t-94.5 141t-35 172t35 172t94.5 141.5
t141.5 94.5t172 35t172 -35t141.5 -94.5t94.5 -141.5t35 -172t-35 -172t-94.5 -141t-141.5 -94.5t-172 -35.5zM263 285q0 30 13 51.5t31 21.5t31 -21.5t13 -52t-13 -52.5t-31 -22t-31 21.5t-13 52.5v1zM670 285q1 30 14 51.5t31 21.5t31 -21.5t13 -52t-13 -52.5t-31 -22
t-31 21.5t-14 52.5v1zM447 77q1 9 19.5 15.5t43.5 6.5q27 0 45.5 -6.5t18.5 -15.5t-18.5 -15.5t-45.5 -6.5q-25 0 -43.5 6t-19.5 15v1z" />
    <glyph glyph-name="xiangce" unicode="&#xe891;" 
d="M426 434zM363 434q0 26 18 44.5t44.5 18.5t44.5 -18.5t18 -44.5t-18 -44.5t-44.5 -18.5t-44.5 18.5t-18 44.5zM512 748q-91 0 -174 -35.5t-143 -95.5t-95.5 -143t-35.5 -174t35.5 -174t95.5 -143t143 -95.5t174 -35.5t174 35.5t143 95.5t95.5 143t35.5 174t-35.5 174
t-95.5 143t-143 95.5t-174 35.5zM512 701q109 0 201.5 -53.5t146 -146t53.5 -201.5q0 -38 -7 -76q-62 21 -127 21q-84 0 -159.5 -33.5t-131.5 -92.5q-84 63 -188 63q-83 0 -156 -42q-33 77 -33 160q0 109 53.5 201.5t146 146t201.5 53.5zM165 98q63 37 135 37q87 0 158 -52
q-55 -74 -72 -164q-70 23 -127 69.5t-94 109.5zM512 -101q-41 0 -80 8q22 125 120 208t227 83q59 0 115 -20q-39 -123 -144 -201t-238 -78z" />
    <glyph glyph-name="pinglun" unicode="&#xe63e;" horiz-adv-x="1072" 
d="M1058 404l-122 -391q-10 -55 -59 -94.5t-109 -39.5h-620q-57 0 -99 41t-42 100v384q0 56 46.5 105.5t101.5 49.5h148l229 317q5 10 21 14t26 -1l101 -54q15 -4 20.5 -20t0.5 -27l-27 -236h262q64 0 98 -45t24 -103zM984 451q-21 21 -34 21h-337q34 276 34 289q0 6 -2 9.5
t-3 3.5l-2 1l-61 27h-13q-3 -3 -58.5 -85.5t-109.5 -163.5l-54 -81h-189q-30 0 -52 -22t-22 -53v-377v-23.5t2 -19t6.5 -17t12.5 -10t19 -4.5h148v526h75v-526h411q36 0 69 22.5t38 51.5l122 391q10 30 0 40z" />
    <glyph glyph-name="shouye4" unicode="&#xe60a;" 
d="M512.5 883q-101.5 0 -194.5 -40t-159.5 -106.5t-106.5 -159.5t-40 -194q0 -115 49 -217v0v0h0.5t0.5 -1v1q5 -8 22 0q7 4 10 9.5t1 10.5v0q-44 93 -44 196q0 94 36.5 179.5t98.5 147.5t147.5 98.5t179 36.5t179 -36.5t147.5 -98.5t98.5 -147.5t36.5 -179t-36.5 -179
t-98.5 -147.5t-147.5 -98.5t-179.5 -36.5q-119 0 -224 58v1q-9 7 -21 -8q-5 -7 -5 -14t3 -10v0q115 -66 247 -66q102 0 194.5 39.5t159.5 106.5t107 160t40 194.5t-40 194t-107 159.5t-159.5 107t-194 40zM155 60zM128 60q0 11 8 19t19 8t18.5 -8t7.5 -19t-7.5 -18.5
t-18.5 -7.5t-19 7.5t-8 18.5zM270 193v-6q0 -10 5.5 -17t13.5 -7h162h5q8 0 13.5 7t5.5 17q0 8 -4 14q-2 4 -5 6q-2 3 -2 6v66q0 5 4 9t10 4h68q6 0 10 -4t4 -9v-66q0 -3 -1 -6q-3 -2 -5 -5q-5 -7 -5 -15q0 -10 6 -17t14 -7h4h164q8 0 14 8q6 6 5 13v3v0v311l58 -24
q8 -3 16.5 0.5t11.5 12t-0.5 16.5t-11.5 11l-304 123q-6 5 -14 4q-7 1 -13 -4l-305 -123q-8 -3 -11.5 -11t0 -16.5t11.5 -12t17 -0.5l59 24v-305zM512 596l201 -81v-305h-115v99q0 10 -7.5 17.5t-17.5 7.5h-122q-10 0 -17 -7.5t-7 -17.5v-99h-113l-1 306zM480 422h66
q10 0 17 7t7 17v17q0 10 -7 17.5t-17 7.5h-66q-10 0 -17 -7.5t-7 -17.5v-17q0 -10 7 -17t17 -7z" />
    <glyph glyph-name="weixiao02" unicode="&#xe738;" 
d="M942 398q0 117 -57.5 216t-156.5 157t-216 58t-216 -58t-156.5 -157t-57.5 -216q0 -86 33.5 -165.5t94.5 -140.5q-14 -24 -14 -51q0 -42 29.5 -72t71.5 -30q27 0 50 13.5t36 35.5q65 -20 129 -20q69 0 135 22q14 -23 37 -37t51 -14q42 0 71.5 30t29.5 72q0 31 -17 56
q60 61 91.5 138.5t31.5 162.5zM297 -34q-31 0 -52.5 22t-21.5 53q0 26 17 47q3 4 8 9q1 0 4 3q4 3 9 6q4 2 5 2q4 2 10 4l2 1t3 1q8 2 16 2q31 0 53 -22t22 -53q0 -8 -2 -16l-0.5 -1t-0.5 -2q-2 -7 -4 -12q-9 -19 -27 -31.5t-41 -12.5zM637 15q-121 -40 -243 -3q1 1 1 4l1 1
q1 4 1 6q2 9 2 18q0 42 -30 71.5t-72 29.5q-10 0 -20 -2q-1 0 -2.5 -0.5t-2.5 -0.5q-11 -3 -14 -4q-1 -1 -3 -2t-3 -2q-8 -4 -11 -6q-2 -1 -9 -7q-1 0 -3 -2l-3 -3q-57 58 -87.5 131t-30.5 154q0 110 54.5 203t147.5 147t202 54t202 -54t147 -147t54 -203q0 -163 -114 -281
q0 1 -2 2.5t-3 1.5q-6 5 -7 5q-3 2 -9 5l-8 4q-3 1 -11 3q-6 2 -7 2q-9 2 -19 2q-42 0 -72 -29.5t-30 -71.5q0 -9 2 -18q1 -4 1 -4.5t0.5 -2zM735 -34q-23 0 -41.5 12.5t-27.5 33.5q0 1 -3 8q-3 12 -3 21q0 31 22 52.5t53 21.5q7 0 15 -1q1 0 2 -0.5t2 -0.5q6 -2 11 -4
q1 0 2 -1t2 -1q5 -3 9 -6q1 0 4 -3q5 -4 8 -7q19 -22 19 -50q0 -31 -21.5 -53t-52.5 -22zM692.5 278.5q-8.5 10.5 -18.5 2.5q-5 -3 -9.5 -6.5t-23 -14t-37 -17.5t-47 -13.5t-55.5 -6.5t-52.5 6t-42 13.5t-30.5 17t-19 14t-6 6.5q-10 10 -19.5 0.5t-0.5 -19.5l8 -8t21 -15.5
t34.5 -19t47 -15.5t59.5 -7q30 0 60.5 6.5t51 15t40 19t26 15.5t11.5 8q10 8 1.5 18.5zM415.5 563.5q-17.5 17.5 -41.5 17.5q-14 0 -25 -6q-16 -7 -21 -13q-4 6 -20 13q-12 6 -25 6q-25 0 -42.5 -17.5t-17.5 -41.5q0 -14 6 -26t16 -20l48 -40l35 -37l37 37l52 44
q16 18 16 42t-17.5 41.5zM783.5 563.5q-17.5 17.5 -42.5 17.5q-13 0 -25 -6q-15 -7 -20 -13q-5 6 -20 13q-12 6 -26 6q-24 0 -42 -17q-17 -18 -17 -42q0 -14 5.5 -26t15.5 -20l48 -40l36 -37l36 37l52 44q17 18 17 42t-17.5 41.5z" />
    <glyph glyph-name="icon" unicode="&#xe628;" 
d="M650 -59v26v16v247q0 26 -18.5 45t-45.5 19h-135q-26 0 -45 -19t-19 -45v-241v-48h-168q-37 0 -63.5 26.5t-26.5 63.5v305h26v-305q0 -26 19 -45t45 -19h142v263q0 37 26.5 63.5t63.5 26.5h135q37 0 63.5 -26.5t26.5 -63.5v-263h143q27 0 46 19t19 45v305h26v-305
q0 -37 -26.5 -63.5t-64.5 -26.5h-169v0zM650 -59zM978 343q-6 0 -10 5l-10 11v0l-399 437h-1q-14 13 -35 13q-31 0 -56 -24l-1 -1l-403 -428l-7 -8q-4 -5 -10 -5q-5 0 -9 4t-4 9q0 6 4 9l11 12v0l400 425v1q28 28 66 32h9q33 0 54 -21l1 -1l407 -446h1q5 -4 5 -11
q0 -5 -4 -9t-9 -4v0zM978 343zM508 382h0.5h0.5h3v0v0h3h0.5h0.5q1 1 2 1q6 3 15.5 9t30.5 21.5t36.5 32t25.5 40.5t6 46q-6 28 -23 45.5t-41 20.5q-34 4 -56 -19q-22 23 -56 19q-24 -3 -41 -20.5t-23 -45.5q-4 -22 6 -46t25.5 -40.5t36.5 -32t30.5 -21.5t15.5 -9q1 0 2 -1
v0zM416 527q9 43 43 47q27 4 40 -17v-27q0 -5 3.5 -8.5t8.5 -3.5t8.5 3.5t3.5 8.5v23l0.5 0.5l0.5 0.5q5 11 16.5 16.5t24.5 3.5q34 -4 43 -47q7 -32 -25.5 -65.5t-70.5 -54.5q-38 21 -70.5 54.5t-25.5 65.5v0zM416 527z" />
    <glyph glyph-name="gouwuchetianjia" unicode="&#xe640;" 
d="M803 0zM739 0q0 26 19 45t45.5 19t45 -19t18.5 -45t-18.5 -45t-45 -19t-45.5 19t-19 45zM346 0zM282 0q0 26 18.5 45t45 19t45.5 -19t19 -45t-19 -45t-45.5 -19t-45 19t-18.5 45zM774 778q-81 0 -139.5 -58.5t-58.5 -140t58.5 -140t140 -58.5t140 58.5t58.5 139.5
q2 82 -56.5 140.5t-142.5 58.5zM774 432q-62 0 -106 43.5t-44 103.5q0 62 44 104.5t106 42.5q63 0 107 -43.5t44 -103.5q0 -62 -44 -104.5t-107 -42.5zM368 246q0 -9 8 -15.5t18 -6.5l492 42q10 0 16.5 7.5t6.5 17.5t-8 16.5t-18 6.5l-493 -42q-10 0 -17 -7t-5 -19zM845 605
h-48v48q0 10 -7 17.5t-19 7.5q-25 0 -25 -25v-48h-48q-11 0 -18.5 -7t-7.5 -19q0 -10 7 -17.5t19 -7.5h48v-48q0 -11 7 -18.5t18 -7.5q26 0 26 26v48h48q10 0 17.5 7t7.5 18q-2 11 -9 18.5t-16 7.5zM330 704h188q11 0 18.5 7t7.5 19q0 10 -7 17.5t-19 7.5h-188
q-11 0 -18.5 -7t-7.5 -18.5t7.5 -18.5t18.5 -7zM886 154h-524q-21 0 -40 15.5t-24 35.5l-93 547q-7 39 -39.5 66t-72.5 27h-23q-10 0 -17.5 -7t-7.5 -19q0 -10 7 -17.5t18 -7.5h23q22 0 40.5 -15t23.5 -37l93 -547q7 -39 39 -66t73 -27h524q11 0 18.5 7.5t7.5 18.5
q0 10 -8 18t-18 8z" />
    <glyph glyph-name="weixiao" unicode="&#xe6bc;" 
d="M512.5 847q-94.5 0 -180.5 -36.5t-148 -98.5t-99 -148t-37 -180.5t37 -180.5t99 -148t148 -98.5t180.5 -37t180.5 36.5t148 99t98.5 148t36.5 180.5t-36.5 180.5t-98.5 148t-148 98.5t-180.5 36.5zM512.5 -17q-108.5 0 -200.5 54t-146 146t-54 200.5t54 200.5t146 145.5
t200.5 53.5t200.5 -53.5t145.5 -145.5t53.5 -200.5t-53.5 -200.5t-145.5 -146t-200.5 -54zM416 447.5q0 26.5 -18.5 45.5t-45 19t-45.5 -19t-19 -45.5t19 -45t45.5 -18.5t45 18.5t18.5 45zM672.5 512q-26.5 0 -45.5 -19t-19 -45.5t19 -45t45.5 -18.5t45 18.5t18.5 45
t-18.5 45.5t-45 19zM616 273q-9 0 -16 -6.5t-8 -16.5v0q-2 -31 -25 -52.5t-54.5 -21.5t-54.5 21.5t-25 52.5v0q-1 10 -8 16.5t-16 6.5q-10 0 -17 -7t-7 -17v-6q5 -49 41.5 -82t86 -33t86 33t41.5 82v6q0 10 -7 17t-17 7z" />
    <glyph glyph-name="shouye5" unicode="&#xe630;" 
d="M793 -128h-563q-42 0 -72 30t-30 72v461q0 43 30 73t72 30h563q43 0 73 -30t30 -73v-461q0 -42 -30 -72t-73 -30zM512 240q-17 38 -47.5 55t-59.5 11t-50.5 -35t-21.5 -73q-1 -19 5 -35t20.5 -29.5t23 -20.5t30 -19.5t26.5 -15.5q28 -19 49 -42t25 -36q3 12 25 36t49 42
q8 6 26.5 17t29 19t24 21t19.5 28.5t6 35.5q0 35 -14.5 61t-36.5 36t-46 9t-46.5 -18t-35.5 -47zM3 384q-1 22 15 38l456 458q15 16 37.5 16t38.5 -16l455 -458q16 -16 16 -38h-1018z" />
    <glyph glyph-name="jia" unicode="&#xe603;" 
d="M512 -128q-104 0 -199 40.5t-163.5 109t-109 163.5t-40.5 199t40.5 199t109 163.5t163.5 109t199 40.5q13 0 22.5 -9.5t9.5 -22.5t-9.5 -22.5t-22.5 -9.5q-185 0 -316.5 -131.5t-131.5 -316.5t131.5 -316.5t316.5 -131.5t316.5 131.5t131.5 316.5q0 106 -47 200t-132 158
q-11 8 -13 21t6 23.5t21.5 12.5t23.5 -6q98 -74 151.5 -181t53.5 -228q0 -104 -40.5 -199t-109 -163.5t-163.5 -109t-199 -40.5zM800 416q0 -13 -9.5 -22.5t-22.5 -9.5h-224v-256q0 -13 -9.5 -22.5t-22.5 -9.5t-22.5 9.5t-9.5 22.5v256h-224q-13 0 -22.5 9.5t-9.5 22.5
t9.5 22.5t22.5 9.5h224v224q0 13 9.5 22.5t22.5 9.5t22.5 -9.5t9.5 -22.5v-224h224q13 0 22.5 -9.5t9.5 -22.5z" />
    <glyph glyph-name="ku01" unicode="&#xe600;" 
d="M514 832q-91 0 -174 -35.5t-143 -95.5t-95 -143t-35 -174t35 -173.5t95 -142.5t143 -95.5t174 -35.5t174 35.5t142.5 95.5t95 142.5t35.5 173.5t-35.5 174t-95 143t-142.5 95.5t-174 35.5zM514 -24q-110 0 -203 54.5t-147.5 147.5t-54.5 203.5t54.5 203.5t147.5 147.5
t203 54.5t203.5 -54.5t147.5 -147.5t54 -203.5t-54 -203.5t-147.5 -147.5t-203.5 -54.5zM597 490q0 36 19 61t45.5 25t45 -25t18.5 -61t-18.5 -61t-45 -25t-45.5 25t-19 61zM299 490q0 36 18.5 61t45 25t45.5 -25t19 -61t-19 -61t-45.5 -25t-45 25t-18.5 61zM685 125v4
q0 71 -50 121t-120.5 50t-120.5 -50t-50 -121v-4h-44v0.5v1.5q0 88 62.5 150.5t151 62.5t150.5 -62.5t62 -150.5v-1.5v-0.5h-41z" />
    <glyph glyph-name="biaoqingpingping" unicode="&#xe60f;" 
d="M362 479zM315 479.5q0 19.5 14 33t33 13.5t33 -13.5t14 -33t-14 -33.5t-33 -14t-33 14t-14 33.5zM661 479zM614 479.5q0 19.5 13.5 33t33 13.5t33.5 -13.5t14 -33t-14 -33.5t-33.5 -14t-33 14t-13.5 33.5zM511.5 -111q-100.5 0 -192.5 39t-158 105.5t-105.5 158.5
t-39.5 192.5t39.5 192t105.5 158t158 105.5t192.5 39t192 -39t158 -105.5t106 -158t39.5 -192t-39.5 -192.5t-106 -158.5t-158 -105.5t-192 -39zM511.5 817q-87.5 0 -168 -34.5t-138.5 -92.5t-92 -138t-34 -168t34 -168t92 -138t138.5 -92t168 -34t167.5 34t138 92t92.5 138
t34.5 168t-34.5 168t-92.5 138t-138 92.5t-167.5 34.5zM647 179h-271q-13 0 -22 9.5t-9 22.5t9 22t22 9h271q13 0 22 -9t9 -22t-9 -22.5t-22 -9.5z" />
    <glyph glyph-name="left2" unicode="&#xe601;" 
d="M403 367l386 -386v24l-96 -97h24l-435 435l-48 48v-24l483 483h-24l96 -97v24l-386 -386l-12 -12l12 -12v0zM427 391v-24l386 386l12 12l-12 12l-96 97l-12 12l-12 -12l-483 -483l-12 -12l12 -12l48 -48l435 -435l12 -12l12 12l96 97l12 12l-12 12l-386 386v0z" />
    <glyph glyph-name="left3" unicode="&#xe622;" 
d="M478 644v0q0 2 -1.5 6.5t-4.5 12.5t-5 14q-9 13 -26 15.5t-30 -9.5l-330 -291q-17 -17 -17 -34q0 -25 17 -33l330 -291q12 -9 28 -7.5t28 13.5q9 12 8 28t-14 28l-296 257l296 257q17 17 17 34v0zM959 644v0l-11 33q-9 13 -26 15.5t-30 -9.5l-330 -291q-17 -17 -17 -34
q0 -25 17 -33l330 -291q12 -9 28 -7.5t28 13.5q8 12 7 28t-13 28l-296 257l296 257q17 17 17 34v0z" />
    <glyph glyph-name="xiaolian-copy" unicode="&#xe60b;" 
d="M513 300q137 0 259 -59t206 -167q17 -22 13.5 -49t-24.5 -43.5t-48 -13.5t-44 25q-66 84 -160.5 130t-201.5 46t-202.5 -47t-160.5 -132q-17 -22 -44 -25.5t-48.5 13t-25 43.5t13.5 49q84 110 206.5 170t260.5 60zM215.5 485q-40.5 0 -69.5 28.5t-29 69.5v131
q0 41 29 69.5t69.5 28.5t69.5 -28.5t29 -69.5v-131q0 -41 -29 -69.5t-69.5 -28.5zM805.5 485q-40.5 0 -69.5 28.5t-29 69.5v131q0 41 29 69.5t69.5 28.5t69.5 -28.5t29 -69.5v-131q0 -41 -29 -69.5t-69.5 -28.5z" />
    <glyph glyph-name="duoseqiu" unicode="&#xe784;" 
d="M505.5 -91q-96.5 0 -185 37.5t-152.5 101.5t-101.5 152.5t-37.5 185t37.5 185t101.5 152.5t152.5 101.5t185 37.5t185 -37.5t152.5 -101.5t102 -152.5t38 -185t-38 -185t-102 -152.5t-152.5 -101.5t-185 -37.5zM81 562h850q-55 125 -170 202.5t-255.5 77.5t-255.5 -77.5
t-169 -202.5zM81 206h850q-55 -125 -170 -202.5t-255.5 -77.5t-255.5 77.5t-169 202.5zM49 385q0 -83 27 -161h857q27 78 27 161t-27 160h-857q-27 -77 -27 -160z" />
    <glyph glyph-name="feihang" unicode="&#xe785;" 
d="M505 331zM82 331.5q0 -114.5 56.5 -212t154 -154t212.5 -56.5t212 56.5t153.5 154t56.5 212t-56.5 212t-153.5 154t-212 56.5t-212.5 -56.5t-154 -154t-56.5 -212zM505 -100q-117 0 -216.5 58t-157.5 157t-58 216t58 216.5t157.5 157.5t216.5 58t216.5 -58t157 -157.5
t57.5 -216.5t-57.5 -216t-157 -157t-216.5 -58zM505 745q-112 0 -207.5 -55.5t-151 -150.5t-55.5 -207.5t55.5 -208t151 -151t207.5 -55.5t207.5 55.5t151 151t55.5 208t-55.5 207.5t-151 150.5t-207.5 55.5zM504.5 -79q101.5 0 189.5 46t146 125l-196 465h-279l-195 -465
q57 -79 145 -125t189.5 -46zM505 -87q-101 0 -192 46t-150 128l-3 4l2 4l197 471h291l200 -475l-3 -4q-60 -82 -150.5 -128t-191.5 -46zM180 93q57 -76 143 -119.5t181.5 -43.5t182 43.5t143.5 119.5l-191 455h-268zM504.5 -79q146.5 0 260.5 92l-149 539h-222l-150 -539
q114 -92 260.5 -92zM504.5 -87q-149.5 0 -265.5 94l-4 3l152 551h235l153 -551l-4 -3q-117 -94 -266.5 -94zM254 17q111 -87 251 -87t250 87l-146 526h-209zM508 552h-76l-101 -589q0 -1 0.5 -2t0.5 -2q34 -16 84.5 -27t87.5 -11h1v0q38 0 88.5 11t84.5 27v2t1 2l-102 589
h-69zM504.5 -87q-92.5 0 -176.5 38l-3 2l-3 9v2l103 597h160l103 -599l-3 -8l-4 -3q-84 -38 -176.5 -38zM340 -35q79 -35 165 -35t164 35l-99 578h-130zM505 -91q151 0 267 95q-45 64 -115.5 101t-152 37t-151.5 -37t-116 -101q117 -95 268 -95zM504.5 -99
q-153.5 0 -271.5 98l-6 4l4 5q48 67 120.5 104.5t153.5 37.5t153.5 -37.5t119.5 -104.5l4 -5l-5 -4q-119 -98 -272.5 -98zM247 6q113 -90 257.5 -90t257.5 90q-45 61 -113 95t-144 34t-144 -34t-114 -95zM719 646q-1 88 -63.5 150t-150.5 62t-151 -62t-64 -150h429zM728 637
h-447l1 9q1 91 66.5 156t156.5 65t156.5 -65t66.5 -156v-9zM299 655h411q-4 81 -64 137.5t-141.5 56.5t-141 -56.5t-64.5 -137.5zM290 647h429v-35h-429v35zM728 603h-447v53h447v-53zM299 621h412v18h-412v-18zM743 612h-476q-20 0 -34.5 -14t-14.5 -34.5t14.5 -34.5
t34.5 -14h43v0v-17q0 -8 5.5 -13.5t13.5 -5.5t13.5 5.5t5.5 13.5v17v0h314v0v-17q0 -8 5.5 -13.5t13 -5.5t13 5.5t5.5 13.5v17v0h44q20 0 34 14t14 34.5t-14 34.5t-34 14zM680.5 471q-11.5 0 -19.5 8t-8 19v8h-297v-8q0 -11 -8 -19t-19 -8t-19.5 8t-8.5 19v8h-34
q-24 0 -41 17t-17 40.5t17 40.5t41 17h476q24 0 40.5 -17t16.5 -40.5t-16.5 -40.5t-40.5 -17h-35v-8q0 -11 -8 -19t-19.5 -8zM338 524h10h323v-26q0 -4 3 -7t7 -3t7 3t3 7v25l8 1h44q16 0 28 11.5t12 28t-12 28t-28 11.5h-476q-17 0 -28.5 -11.5t-11.5 -28t11.5 -28
t28.5 -11.5h52v-26q0 -10 10 -10t10 10v17zM407 562zM388 562q0 -8 5.5 -13.5t13.5 -5.5t14 5.5t6 13.5t-6 14t-14 6t-13.5 -6t-5.5 -14zM407 536q-11 0 -19 7.5t-8 18.5t8 19t19 8t19 -8t8 -19t-8 -18.5t-19 -7.5zM407 575q-5 0 -8.5 -4t-3.5 -9t3.5 -8.5t8.5 -3.5t8.5 3.5
t3.5 8.5t-3.5 9t-8.5 4zM505 562zM485 562q0 -8 6 -13.5t14 -5.5t13.5 5.5t5.5 13.5t-5.5 14t-13.5 6t-14 -6t-6 -14zM505 536q-11 0 -19 7.5t-8 18.5t8 19t19 8t19 -8t8 -19t-8 -18.5t-19 -7.5zM505 575q-5 0 -8.5 -4t-3.5 -9t3.5 -8.5t8.5 -3.5t8.5 3.5t3.5 8.5t-3.5 9
t-8.5 4zM603 562zM583 562q0 -8 5.5 -13.5t14 -5.5t14 5.5t5.5 13.5t-5.5 14t-14 6t-14 -6t-5.5 -14zM602.5 536q-11.5 0 -19 7.5t-7.5 18.5t7.5 19t19 8t19 -8t7.5 -19t-7.5 -18.5t-19 -7.5zM602.5 575q-5.5 0 -9 -4t-3.5 -9t3.5 -8.5t9 -3.5t9 3.5t3.5 8.5t-3.5 9t-9 4z
" />
    <glyph glyph-name="diqiu" unicode="&#xe786;" 
d="M516 352zM172 352.5q0 -93.5 46 -172.5t125.5 -125.5t172.5 -46.5t172.5 46.5t125.5 125.5t46 172.5t-46 172.5t-125.5 125t-172.5 46t-172.5 -46t-125.5 -125t-46 -172.5zM516 1q-122 0 -217 74.5t-124 192.5q-23 93 3.5 182.5t93.5 154.5t160 88q41 11 84 11
q122 0 217 -75t124 -193q23 -92 -3.5 -182t-94 -155t-159.5 -87q-42 -11 -84 -11v0zM516 689q-41 0 -81 -10q-88 -21 -152.5 -83.5t-90 -149t-3.5 -174.5q28 -113 119 -184.5t208 -71.5q41 0 81 9q88 22 152.5 84.5t90 148.5t3.5 175q-28 113 -119 184.5t-208 71.5zM512 543
q-91 3 -178 -4.5t-158.5 -24t-115.5 -46t-46 -66.5q-1 -49 71.5 -88.5t182 -61t233.5 -25.5q90 -3 177.5 4t158.5 24t115.5 46t45.5 66q2 49 -71 89t-182.5 61.5t-232.5 25.5zM978 368q-1 -33 -62.5 -63t-173 -47t-241.5 -13q-98 4 -186.5 19.5t-149.5 38t-96 48.5t-34 51
q1 33 62.5 62.5t173 47t240.5 12.5q98 -3 186.5 -18.5t149.5 -38t96.5 -48.5t34.5 -51zM233 530q-10 -12 -21 -35q118 27 297 20q197 -7 322 -50q-1 4 -18 40q-168 50 -302 55q-48 2 -102.5 -3t-84 -10.5t-91.5 -16.5zM626 256zM538 255.5q0 -36.5 25.5 -62.5t62.5 -26
t63 26t26 62.5t-26 62.5t-63 26t-62.5 -26t-25.5 -62.5zM626 161v0h-3q-39 2 -66 30.5t-25.5 67.5t30 66t68 25.5t66 -30.5t25.5 -68q-2 -37 -29.5 -64t-65.5 -27v0zM626 338v0q-33 0 -57 -23t-25 -56q-2 -35 21.5 -60t57.5 -26h3v0q33 0 57.5 23.5t25.5 56.5q1 34 -22.5 59
t-57.5 26h-3zM807 645zM788 645q0 -8 5.5 -13.5t13.5 -5.5t13.5 5.5t5.5 13.5t-5.5 13.5t-13.5 5.5t-13.5 -5.5t-5.5 -13.5zM807 620h-1q-10 0 -17 7.5t-7 17.5l1 1q0 10 7 17t17 7v0q11 -1 18 -8.5t7 -17.5t-7.5 -17t-17.5 -7v0zM808 658q-6 0 -9.5 -3.5t-4.5 -9.5v0
q0 -5 4 -9t9 -4v-6v6v0q5 0 9 3.5t4 8.5v1q0 5 -3.5 9t-8.5 4v0zM109 500zM62 499.5q0 -19.5 14 -33t33 -13.5t33 13.5t14 33t-14 33t-33 13.5t-33 -13.5t-14 -33zM109 447h-2q-22 1 -36.5 17t-14.5 37q1 21 16.5 36t36.5 15v0h2q22 -1 37 -17q14 -15 14 -35v-2
q-1 -21 -16.5 -36t-36.5 -15v0zM109 540v0q-16 0 -28 -11.5t-13 -27.5q0 -17 11.5 -29.5t28.5 -12.5h1v0q17 0 28.5 11.5t12.5 27.5v2q0 16 -11 27q-12 13 -28 13h-2zM538 692q3 0 0.5 -7t-6 -15t0.5 -15q3 -4 5 -7t2 -3.5t0.5 -1t2.5 -0.5q10 -2 25 5t21 6q4 -1 13 -26
q2 -7 10.5 -9.5t8.5 -4.5q0 -1 1.5 -9t0.5 -13.5t-5 -11.5q-5 -7 -25 -9.5t-23 -4.5q-5 -1 -9.5 -0.5t-15.5 3.5q-12 3 -17 4t-10.5 -0.5t-1.5 -8.5t17 -21q3 -2 18 -2t20 -4q9 -8 17.5 -11.5t12 -4t6.5 -4t5 -11t5 -25.5q8 -53 -10 -74q-10 -13 -18 -19t-11.5 -5t-5.5 5
q-1 3 3 10t9 14t3.5 16t-12.5 16l-32 21q-3 2 -6.5 4.5t-8 9.5t-2.5 12q1 0 2.5 2t2 3t1.5 4t0.5 5.5t-2 6.5t-4 8t-7.5 9.5t-12 11.5q-12 10 -24 12.5t-19 0t-14.5 1t-14.5 17.5q-6 15 -9 26.5t-3.5 17.5t0.5 18t1 18l-1 30l6 3t16 5.5t25 5.5t31.5 1.5t36.5 -5.5zM578 377
q-8 0 -11 9q-3 6 6 20q10 15 9 22q-2 6 -10 11l-33 21q-27 19 -18 34l2 2q10 14 -20 40q-13 12 -27 12q-3 0 -10 -1h-9q-17 0 -27 23q-15 33 -13 65q1 11 1 17q0 21 -1 28l-3 4l6 3q32 17 76 17q22 0 43 -6q4 -1 6 -4q2 -5 -3 -16q-7 -15 -4 -19q5 -6 7 -11h4q6 0 18 6
q15 7 23 5q8 -1 15 -23l2 -5q2 -5 10 -8q10 -3 10 -9q0 -2 1 -6q3 -20 -5 -31q-7 -10 -35 -13q-13 -1 -14 -3q-6 -4 -30 2q-16 4 -23 5q4 -7 17 -20q1 -1 12 -1q19 -1 25 -5q12 -10 25 -14q11 -4 14.5 -11t8.5 -35q9 -57 -10 -78l-1 -1q-21 -26 -34 -26zM476 560
q18 0 35 -15q38 -34 21 -56l-1 -2q-1 -1 4 -7t11 -10l32 -21q13 -8 15 -19q3 -12 -10 -31q-5 -7 -6 -9l1 -1q7 0 25 22l1 1q15 17 7 68q-4 24 -6 29.5t-8 6.5q-15 5 -30 16q-3 3 -17 3q-17 0 -21 4q-23 24 -19 34q2 6 12 6q6 0 25 -4q15 -4 19 -4h1v0q4 3 19 5q23 2 27 8
q6 7 3 22v6h-2q-14 4 -18 14l-2 6q-5 15 -7 16v0h-2q-3 0 -12 -4q-19 -10 -32 -7q-4 1 -6 5t-6 10q-8 9 2 31q2 3 2 5q-18 4 -37 4v0q-36 0 -67 -14v-26v-17q-2 -30 12 -61q7 -16 16 -16q3 0 8 1q7 1 11 1zM237 164q2 5 5 13t14 21t21 14q27 1 27 -22q0 -7 4 -15.5t9 -11.5
q4 -1 21.5 -4.5t39 -6.5t28.5 -5q41 -8 46 -23q5 -11 -7 -40q0 -1 -1.5 -4l-2 -4t0 -3.5t2 -4.5l4.5 -6q6 -7 18 -12.5t16 -10.5q3 -4 6 -9t4 -8l1 -3l3 -7q-12 0 -31 2.5t-64.5 16t-76 34.5t-52.5 46t-29 39zM504 5l-9 1q-13 0 -33 2.5t-65.5 16.5t-76 35t-53 47.5t-28 37
t-8.5 17.5l-1 2l1 2q3 8 7 16.5t15.5 21.5t23.5 13h2q31 0 31 -27q0 -5 3 -12.5t7 -8.5q4 -3 52 -10q28 -4 35 -6q44 -9 51 -27q5 -14 -6 -41l-1 -3q-1 -2 -2 -5q-2 -4 4 -11q5 -6 17 -11.5t17 -11.5q9 -11 11 -22zM243 164q23 -52 85 -94q59 -41 159 -52q-4 10 -10 17
q-3 4 -12 9q-15 6 -21 14q-11 13 -6 24q1 3 2 5l1 3q9 22 6 32q-5 12 -42 20l-35 5q-50 8 -55 11q-8 4 -12.5 14t-4.5 18q0 16 -19 16h-2q-18 -1 -34 -42z" />
    <glyph glyph-name="feichuan" unicode="&#xe787;" 
d="M866 485q-1 95 -48.5 175.5t-129 127t-176.5 46.5t-176.5 -46.5t-129 -127t-48.5 -175.5h708zM876 475h-728v10q1 97 50.5 180t133 131t180.5 48t180.5 -48t133 -131t50.5 -180v-10zM168 495h688q-6 137 -106 233t-238 96t-238 -96t-106 -233zM158 487h708v-58h-708v58z
M876 419h-728v78h728v-78zM168 439h688v38h-688v-38zM905 429h-786q-33 0 -56.5 -23.5t-23.5 -57t23.5 -56.5t56.5 -23h72v-1v0v-27q0 -13 9 -22t22 -9t22 9t9 22v27v0v1h518v-1v0v-27q0 -13 9 -22t22 -9t22 9t9 22v27v0v1h72q33 0 56.5 23t23.5 56.5t-23.5 57t-56.5 23.5z
M802 200q-17 0 -29 12t-12 29v18h-498v-18q0 -17 -12 -29t-29 -12t-29 12t-12 29v18h-62q-37 0 -63.5 26t-26.5 63.5t26.5 64t63.5 26.5h786q37 0 63.5 -26.5t26.5 -64t-26.5 -63.5t-63.5 -26h-62v-18q0 -17 -12 -29t-29 -12zM253 279h529l-1 -38q0 -9 6.5 -15t15 -6t14.5 6
t6 15v37l10 1h72q29 0 49.5 20.5t20.5 49.5t-20.5 49.5t-49.5 20.5h-786q-29 0 -49.5 -20.5t-20.5 -49.5t20.5 -49.5t49.5 -20.5h82v-38q0 -9 6 -15t14.5 -6t15 6t6.5 15v37zM351 347zM319 346.5q0 -13.5 9.5 -22.5t22.5 -9t22.5 9t9.5 22.5t-9.5 23t-22.5 9.5t-22.5 -9.5
t-9.5 -23zM351 306q-17 0 -29 12t-12 28.5t12 28.5t29 12t28.5 -12t11.5 -28.5t-11.5 -28.5t-28.5 -12zM351 371q-10 0 -17 -7t-7 -17t7 -17t17 -7t17 7t7 17t-7 17t-17 7zM512 347zM480 346.5q0 -13.5 9.5 -22.5t22.5 -9t22.5 9t9.5 22.5t-9.5 23t-22.5 9.5t-22.5 -9.5
t-9.5 -23zM512 306q-17 0 -28.5 12t-11.5 28.5t11.5 28.5t28.5 12t28.5 -12t11.5 -28.5t-11.5 -28.5t-28.5 -12zM512 371q-10 0 -17 -7t-7 -17t7 -17t17 -7t17 7t7 17t-7 17t-17 7zM673 347zM641 346.5q0 -13.5 9.5 -22.5t22.5 -9t22.5 9t9.5 22.5t-9.5 23t-22.5 9.5
t-22.5 -9.5t-9.5 -23zM673 306q-17 0 -28.5 12t-11.5 28.5t11.5 28.5t28.5 12t29 -12t12 -28.5t-12 -28.5t-29 -12zM673 371q-10 0 -17 -7t-7 -17t7 -17t17 -7t17 7t7 17t-7 17t-17 7zM320 -65h563q2 9 4 22.5t-2 43.5t-20.5 45t-37.5 22t-34 7h-13q0 3 -1.5 6.5t-6.5 14
t-11 19t-15.5 17t-21.5 12.5q-26 7 -46.5 3t-32.5 -12l-13 -8q-1 3 -4 6.5t-12.5 13.5t-20 17.5t-25.5 13t-31 4.5q-17 -1 -33 -6.5t-26 -13t-17.5 -15t-10.5 -12t-3 -5.5q-2 2 -5.5 5t-14.5 9t-22.5 9.5t-29.5 3.5t-36 -7t-31 -19t-19 -23t-10 -23.5t-4.5 -17.5t-0.5 -7
q-7 1 -18 2t-36.5 -5t-41.5 -23q-22 -25 -22 -98zM891 -75h-571l-171 1l-1 9q-1 8 -1.5 20.5t5.5 40.5t21 45q33 37 95 30q10 65 70 88q21 8 42 8q36 0 67 -22q35 44 92 47q52 3 96 -51q28 18 60 18q17 0 33 -6q39 -12 59 -68q50 -1 84 -32q19 -16 24 -47.5t2.5 -47
t-4.5 -25.5zM167 -54l153 -1h555q12 68 -17 94q-30 27 -73 27q-2 0 -4 -1h-8l-2 8q-2 5 -5.5 14t-16 26t-28.5 22q-12 4 -26 4q-31 0 -56 -19l-9 -7l-6 9q-4 5 -11.5 14.5t-29.5 23t-43 12.5q-25 -1 -46 -13.5t-27 -20t-9 -13.5l-7 -11l-9 9q-3 3 -8 7t-21.5 10.5t-32.5 6.5
q-18 0 -35 -6q-16 -7 -28 -17.5t-17.5 -20.5t-9 -21t-4 -15.5t-0.5 -7.5v-12l-12 3q-4 1 -15.5 2t-34.5 -4t-36 -20q-24 -28 -21 -82z" />
    <glyph glyph-name="feihangqiu" unicode="&#xe788;" 
d="M420 353zM38 353q0 -104 51 -192t139.5 -139t192 -51t191.5 51t139.5 139t51.5 192t-51.5 192t-139.5 139t-191.5 51t-192 -51t-139.5 -139t-51 -192zM420.5 -37q-105.5 0 -195.5 52.5t-142.5 142t-52.5 195.5t52.5 196t142.5 142t195.5 52t195.5 -52t142.5 -142
t52.5 -196t-52.5 -195.5t-142.5 -142t-195.5 -52.5zM420.5 728q-101.5 0 -188 -50.5t-136.5 -136.5t-50 -187.5t50 -188t136.5 -136.5t188 -50t187.5 50t136.5 136.5t50.5 188t-50.5 187.5t-136.5 136.5t-187.5 50.5zM118 597h95v-21h-95v21zM262 597h201v-21h-201v21z
M512 597h214v-21h-214v21zM53 484h127v-20h-127v20zM336 484h353v-20h-353v20zM734 484h53v-20h-53v20zM35 372h239v-21h-239v21zM103 148h269v-22h-269v22zM600 148h142v-22h-142v22zM53 260h72v-21h-72v21zM272 260h284v-21h-284v21zM663 260h130v-21h-130v21zM891 676z
M794 675.5q0 -40.5 28.5 -69t69 -28.5t69 28.5t28.5 69t-28.5 69.5t-69 29t-69 -29t-28.5 -69.5zM891.5 570q-43.5 0 -74.5 31t-31 74.5t31 74.5t74.5 31t74.5 -31t31 -74.5t-31 -74.5t-74.5 -31zM891.5 766q-37.5 0 -63.5 -26.5t-26 -63.5t26 -63.5t63.5 -26.5t63.5 26.5
t26 63.5t-26 63.5t-63.5 26.5zM920 760q21 -11 30.5 -33.5t6.5 -49.5q-3 -25 -18.5 -43.5t-34.5 -25t-33.5 -9t-19.5 -1.5q19 -9 41 -9v0q37 0 63 25.5t26 61.5q0 29 -17 52t-44 32z" />
    <glyph glyph-name="hengqiu" unicode="&#xe789;" 
d="M512 384zM60 384q0 -92 35.5 -175.5t96.5 -144.5t144.5 -96.5t175.5 -35.5t175.5 35.5t144 96.5t96.5 144.5t36 175.5t-36 175.5t-96.5 144t-144 96.5t-175.5 36t-175.5 -36t-144.5 -96.5t-96.5 -144t-35.5 -175.5zM512 -77q-94 0 -179.5 36.5t-147 98t-98 147
t-36.5 179.5t36.5 179.5t98 147t147 98t179.5 36.5t179.5 -36.5t147 -98t98 -147t36.5 -179.5t-36.5 -179.5t-98 -147t-147 -98t-179.5 -36.5zM512 827q-90 0 -172 -35t-141.5 -94.5t-94.5 -141.5t-35 -172t35 -172t94.5 -141.5t141.5 -94.5t172 -35t172 35t141.5 94.5
t94.5 141.5t35 172t-35 172t-94.5 141.5t-141.5 94.5t-172 35zM155 672h714v-24h-714v24zM77 539h870v-24h-870v24zM56 406h912v-24h-912v24zM136 141h752v-26h-752v26zM77 273h870v-24h-870v24zM316 391zM201 391.5q0 -47.5 34 -81.5t81.5 -34t81 34t33.5 81.5t-33.5 81.5
t-81 34t-81.5 -34t-34 -81.5zM316.5 267q-51.5 0 -88 36.5t-36.5 88t36.5 88t88 36.5t88 -36.5t36.5 -88t-36.5 -88t-88 -36.5zM316.5 497q-43.5 0 -75 -31t-31.5 -74.5t31.5 -74.5t75 -31t74.5 31t31 74.5t-31 74.5t-74.5 31zM351 486q24 -13 35 -39t7 -57q-3 -29 -21 -50
t-39 -29t-38 -11t-22 -1q21 -11 46 -11v0q42 0 71.5 29.5t29.5 71.5q0 34 -19 60t-50 37z" />
    <glyph glyph-name="huojian2" unicode="&#xe78a;" 
d="M518 332zM178 332.5q0 -92.5 45.5 -170.5t124 -123.5t170.5 -45.5t170.5 45.5t124 123.5t45.5 170.5t-45.5 170.5t-124 123.5t-170.5 45.5t-170.5 -45.5t-124 -123.5t-45.5 -170.5zM518 -15q-120 0 -214 74t-123 190q-34 140 40 263q36 59 91.5 100t122.5 57q41 10 83 10
q120 0 214 -73.5t123 -190.5q22 -91 -4 -179.5t-92.5 -153t-157.5 -86.5q-41 -10 -83 -11zM518 665q-40 0 -80 -10q-64 -15 -117 -54t-88 -96q-71 -118 -38 -252q27 -112 117.5 -182.5t205.5 -70.5q40 0 80 9q87 22 151 83.5t89 146.5t3 173q-27 112 -117.5 182.5
t-205.5 70.5zM514 521q-90 3 -176 -4.5t-156.5 -24t-114 -45.5t-45.5 -65q-1 -49 71 -88t180 -60t230 -26q90 -3 176 4.5t156.5 24t114 45.5t44.5 65q2 49 -70 88t-180 60t-230 26zM974 348q-1 -33 -61.5 -62.5t-171 -46.5t-238.5 -12q-96 3 -184 18.5t-147.5 37.5t-95 48
t-34.5 50q2 33 62.5 62.5t170.5 46.5t238 12q97 -3 184.5 -18.5t147.5 -37.5t95 -48t34 -50zM238 507q-9 -11 -20 -34q116 26 293 20q195 -7 319 -49q-2 3 -18 39q-166 50 -299 55q-47 1 -101 -4t-83 -10t-91 -17zM627 237zM539 237q0 -36 26 -62t62 -26t61.5 26t25.5 62
t-25.5 61.5t-61.5 25.5t-62 -25.5t-26 -61.5zM627 143v0v0q-17 0 -37 9t-31 21q-11 11 -18.5 29.5t-7.5 34.5q0 1 1 3q1 39 29 65t67 25t65.5 -29.5t24.5 -66.5q-1 -38 -28 -64.5t-65 -26.5v0zM627 318v0q-33 0 -57 -23t-25 -55v-3q0 -14 6.5 -30t15.5 -26
q10 -10 26.5 -17.5t30.5 -8.5h3v0q33 0 56.5 23t24.5 56q2 34 -21 58.5t-57 25.5h-3zM806 621zM787 621.5q0 -7.5 5.5 -13t13.5 -5.5t13 5.5t5 13t-5 13t-13 5.5t-13.5 -5.5t-5.5 -13zM806 597h-1q-10 0 -17 7t-7 17v1q1 10 8 17t17 7v0q11 -1 18 -8t6 -18q0 -9 -7 -16
t-17 -7v0zM806 634q-13 0 -13 -12v-1q0 -5 3.5 -8.5t8.5 -4.5l1 -5v5v0q5 0 8.5 4t4.5 9v0q0 5 -4 9t-9 4v0zM116 478zM70 478q0 -19 13.5 -32.5t32.5 -13.5t32.5 13.5t13.5 32.5t-13.5 32.5t-32.5 13.5t-32.5 -13.5t-13.5 -32.5zM116 426v0h-2q-21 1 -36 16.5t-14 37.5
q1 20 16 35t36 15v0h2q21 -1 36 -17q14 -15 14 -35v-2q-1 -21 -16 -35.5t-36 -14.5v0zM116 518v0q-16 0 -28 -11.5t-12 -27.5q-1 -16 10.5 -28.5t28.5 -12.5l1 -1v0q16 0 28 11.5t12 27.5v2q0 16 -10 27q-12 12 -29 13h-1zM382 527l-3 -6t-4 -18t0.5 -30.5t14.5 -42.5
t33 -54l45 90zM424 363l-7 9q-21 29 -33.5 56t-15 44t-0.5 32t4.5 19.5t4.5 7.5l4 6l96 -69zM385 516q-17 -50 37 -126l37 74zM537 632q2 1 6.5 1.5t18.5 -3t28 -11.5t34 -28.5t38 -50.5l-100 -10zM557 523l-29 115l7 1q3 1 9 1q10 0 21 -3t28 -12t37 -30t38 -51l6 -10z
M545 626l23 -88l82 8q-51 78 -105 80zM520 657q-46 66 -100.5 97.5t-86 10t-22 -84t54.5 -128.5q29 -42 63.5 -71.5t65.5 -39.5v0h1l3 5t9 12.5t14 15.5t21.5 13.5t29.5 5.5h2q1 1 1 2v1v0q4 72 -56 161zM496 434v0h-2l-2 1q-33 10 -68 40t-64 73q-46 68 -56 131
q-10 67 25 91q15 10 34 10q36 0 81 -33t81 -86q62 -91 58 -165v0v-2q-1 -4 -4 -6t-6 -2q-44 -1 -69 -46q-4 -6 -8 -6zM363 766q-15 0 -26 -7q-28 -20 -19 -78q9 -60 54 -125q26 -39 58.5 -67.5t62.5 -39.5q28 48 76 51q2 69 -55 153q-34 50 -76.5 81.5t-74.5 31.5zM543 612
l-147 -99l18 -18l139 94q-5 12 -10 23zM414 486l-4 4q-10 9 -19 18l-6 6l160 109l4 -8l10 -24l2 -5zM407 512l8 -8l129 87q-2 6 -4 11zM566 564l-130 -89q8 -7 18 -12l117 79q-1 10 -5 22zM455 454l-4 2q-11 6 -20 14l-7 6l145 99l3 -9q5 -13 6 -24v-4zM448 474q3 -2 6 -3
l110 74l-2 8zM412 649zM372 649.5q0 -16.5 12 -28.5t28.5 -12t28 12t11.5 28.5t-11.5 28t-28 11.5t-28.5 -11.5t-12 -28zM412 602h-3q-19 1 -32 16q-12 13 -12 31v3q1 19 15.5 32t34.5 12q19 -1 32 -16q12 -13 12 -31v-2q-1 -19 -15 -32t-32 -13zM412 682q-13 0 -22.5 -9
t-10.5 -22v-2q0 -13 9 -22q9 -10 22 -11h2q13 0 22.5 9t10.5 22v2q0 13 -8 22q-10 10 -23 11h-2zM381 663q10 16 33 12q13 -2 20 -12t8 -18.5t0 -11.5q2 6 2 13q0 14 -9.5 24t-23.5 10q-20 0 -30 -17z" />
    <glyph glyph-name="huojian" unicode="&#xe78b;" 
d="M599 426zM254 425.5q0 -93.5 46 -173t125.5 -126t173.5 -46.5t173.5 46.5t125.5 126t46 173t-46 173t-125.5 126t-173.5 46.5t-173.5 -46.5t-125.5 -126t-46 -173zM599 72q-96 0 -177 47.5t-128.5 129t-47.5 177t47.5 177t128.5 129t177 47.5t177.5 -47.5t128.5 -129
t47 -177t-47 -177t-128.5 -129t-177.5 -47.5zM599.5 763q-91.5 0 -169.5 -45.5t-123 -123t-45 -169t45 -169t123 -123t169.5 -45.5t169 45.5t123 123t45.5 169t-45.5 169t-123 123t-169 45.5zM204 125q8 -10 -5 -19l-65 -50q-13 -10 -20.5 0t4.5 20l66 50q12 9 20 -1z
M219 43.5q8 -10.5 -5 -19.5l-65 -50q-13 -10 -20.5 0t4.5 20l66 50q12 10 20 -0.5zM129 161q7 -10 -5 -19l-65 -50q-13 -10 -20.5 0t4.5 20l65 50q16 10 21 -1zM336 444q-4 3 -11.5 6t-32.5 5t-53.5 -4t-74 -29.5t-92.5 -63.5l164 -73zM239 275l-182 81l9 8q118 100 216 100
q38 0 58 -13l7 -4zM86 360l147 -65l92 146q-19 7 -43 7q-88 0 -196 -88zM539 180q1 -4 2 -12t-3.5 -33t-17.5 -51t-47.5 -63.5t-86.5 -73.5l-27 177zM381 -67l-31 197l194 60l2 -8q2 -5 3 -14.5t-4 -35.5t-18.5 -52.5t-48.5 -64.5t-87 -74zM368 119l24 -158q49 34 80.5 69.5
t43 63.5t15 45t2.5 31zM581 213q114 87 164.5 187t8.5 155t-152 32t-223 -110q-73 -56 -122 -120.5t-64 -121.5h1l-1 -1q0 -1 9.5 -5.5t24 -14t29 -24t25.5 -37.5t13 -51q0 -2 1 -3q1 -2 3 -3h1l1 1q59 -1 133.5 29.5t147.5 86.5zM299 89h-2q-5 0 -8 5q-3 3 -3 7
q-6 81 -91 123q-10 4 -10 10q0 2 1 3q15 60 65 125t123 121q72 55 147.5 86.5t137.5 31.5q70 0 101 -41q44 -57 -7 -160.5t-167 -192.5q-72 -56 -147.5 -87t-137.5 -31v0h-2zM202 237q92 -45 99 -133q59 0 132 30.5t143 84.5q111 85 161.5 182t10.5 149q-27 35 -89 35
q-59 0 -132 -30.5t-143 -84.5q-70 -53 -118 -114.5t-64 -118.5zM503 167l-190 252q-16 -17 -30 -34l180 -238zM460 138l-187 247l4 5q14 17 30 34l6 7l202 -266l-8 -5q-20 -10 -41 -20zM293 384l172 -227q14 6 26 13l-179 236q-10 -10 -19 -22zM419 121l-171 223
q-12 -15 -20 -33l152 -201q18 2 39 11zM377 101l-158 208l2 5q8 19 21 35l6 8l184 -239l-9 -4q-22 -10 -41 -12zM237 312l147 -194q10 2 23 7l-159 206q-6 -9 -11 -19zM557 404zM485 403.5q0 -29.5 21 -50t50.5 -20.5t50.5 20.5t21 50t-21 50.5t-50.5 21t-50.5 -21
t-21 -50.5zM556.5 325q-32.5 0 -56 23t-23.5 55.5t23.5 56t56 23.5t56 -23.5t23.5 -56t-23.5 -55.5t-56 -23zM556.5 467q-26.5 0 -45 -18.5t-18.5 -44.5t18.5 -45t45 -19t45 19t18.5 45t-18.5 44.5t-45 18.5zM578 460q14 -8 20.5 -23.5t4.5 -33.5q-2 -23 -19.5 -36.5
t-32.5 -16.5t-20 -1q13 -7 28 -7v0q25 0 42.5 17.5t17.5 42.5q0 20 -11.5 36t-29.5 22zM953 725zM915 725q0 -16 11 -27t27 -11t27.5 11t11.5 27t-11.5 27.5t-27.5 11.5t-27 -11.5t-11 -27.5zM953 679q-19 0 -32.5 13.5t-13.5 32.5t13.5 32.5t32.5 13.5t33 -13.5t14 -32.5
t-14 -32.5t-33 -13.5zM953.5 756q-12.5 0 -21.5 -9t-9 -21.5t9 -21.5t21.5 -9t21.5 9t9 21.5t-9 21.5t-21.5 9zM219 690zM191 690q0 -12 8.5 -20t20 -8t20 8t8.5 20t-8.5 20.5t-20 8.5t-20 -8.5t-8.5 -20.5z" />
    <glyph glyph-name="lanqiu" unicode="&#xe78c;" 
d="M563 375zM171 374.5q0 -106.5 52.5 -196.5t143 -142.5t196.5 -52.5t196.5 52.5t143 142.5t52.5 196.5t-52.5 196.5t-143 142.5t-196.5 52.5t-196.5 -52.5t-143 -142.5t-52.5 -196.5zM563 -25q-108 0 -200.5 53.5t-146 145.5t-53.5 200.5t53.5 200.5t146 145.5t200.5 53.5
t200.5 -53.5t146 -145.5t53.5 -200.5t-53.5 -200.5t-146 -145.5t-200.5 -53.5zM563 758q-104 0 -192.5 -51.5t-140 -139.5t-51.5 -192t51.5 -192.5t140 -140t192.5 -51.5t192.5 51.5t140 140t51.5 192.5t-51.5 192t-140 139.5t-192.5 51.5zM834 171zM679 170.5
q0 -64.5 45.5 -110t110 -45.5t110 45.5t45.5 110t-45.5 110.5t-110 46t-110 -46t-45.5 -110.5zM834.5 7q-67.5 0 -115.5 48t-48 116t48 116t115.5 48t115.5 -48t48 -116t-48 -116t-115.5 -48zM834.5 319q-61.5 0 -104.5 -43.5t-43 -104.5t43 -104.5t104.5 -43.5t104.5 43.5
t43 104.5t-43 104.5t-104.5 43.5zM882 305q34 -17 49.5 -54.5t10.5 -80.5q-3 -29 -16.5 -52.5t-31 -36.5t-38 -23.5t-38.5 -13t-31 -5t-17 0.5q31 -16 66 -16v0q60 0 102 42.5t42 101.5q0 47 -27.5 85t-70.5 52zM657 581zM588 581.5q0 -28.5 20 -49t49 -20.5t49 20.5t20 49
t-20 48.5t-49 20t-49 -20t-20 -48.5zM657 505q-31 0 -53.5 22.5t-22.5 54t22.5 53.5t53.5 22t53.5 -22t22.5 -53.5t-22.5 -54t-53.5 -22.5zM657 644q-26 0 -44 -18.5t-18 -44t18 -44t44 -18.5t44 18.5t18 44t-18 44t-44 18.5zM398 519zM352 519q0 -19 13.5 -32t32.5 -13
t32 13t13 32t-13 32.5t-32 13.5t-32.5 -13.5t-13.5 -32.5zM397.5 467q-21.5 0 -36.5 15.5t-15 37t15 36.5t36.5 15t37 -15t15.5 -36.5t-15.5 -37t-37 -15.5zM398 558q-16 0 -27.5 -11.5t-11.5 -27.5t11.5 -27t27.5 -11t27.5 11t11.5 27t-11.5 27.5t-27.5 11.5zM382 214z
M308 214.5q0 -30.5 22 -52.5t52.5 -22t52 22t21.5 52.5t-21.5 52t-52 21.5t-52.5 -21.5t-22 -52zM382 134q-33 0 -56.5 23.5t-23.5 56.5t23.5 57t56.5 24t57 -24t24 -57t-24 -56.5t-57 -23.5zM382 281q-28 0 -47.5 -19.5t-19.5 -47.5t19.5 -47.5t47.5 -19.5t47.5 19.5
t19.5 47.5t-19.5 47.5t-47.5 19.5zM119 653zM19 653q0 -41 29.5 -70.5t70.5 -29.5t70.5 29.5t29.5 70.5t-29.5 70.5t-70.5 29.5t-70.5 -29.5t-29.5 -70.5zM118.5 545q-44.5 0 -76 32t-31.5 76.5t31.5 76t76 31.5t76.5 -31.5t32 -76t-32 -76.5t-76.5 -32zM119 745
q-38 0 -65 -27t-27 -65t27 -64.5t65 -26.5t65 26.5t27 64.5t-27 65t-65 27zM149 735q21 -11 30.5 -33.5t6.5 -49.5q-3 -25 -18.5 -43.5t-34 -25t-33 -9t-19.5 -1.5q19 -9 40 -9v0q36 0 62 25.5t26 61.5q0 29 -17 52t-43 32z" />
    <glyph glyph-name="qiu" unicode="&#xe78d;" 
d="M522 386zM62 385.5q0 -93.5 36.5 -178.5t98 -146.5t146.5 -98t178.5 -36.5t179 36.5t147 98t97.5 146.5t36 178.5t-36 178.5t-97.5 146.5t-147 98t-179 36.5t-178.5 -36.5t-146.5 -98t-98 -146.5t-36.5 -178.5zM522 -84q-95 0 -182 37.5t-150 100.5t-100 149.5t-37 182
t37 182.5t100 149.5t150 100t182 37.5t182 -37.5t150 -100t100 -149.5t37 -182.5t-37 -182t-100 -149.5t-150 -100.5t-182 -37.5zM521.5 836q-91.5 0 -174.5 -36t-143.5 -96t-96 -143.5t-35.5 -175t35.5 -175t96 -143.5t143.5 -96t174.5 -36t175 36t144 96t96 143.5
t35.5 175t-35.5 175t-96 143.5t-144 96t-175 36zM640 828q8 -2 1 -18.5t-15 -34.5t2 -34q5 -7 9 -12.5t5.5 -8t2 -4.5t1.5 -2.5t1.5 -1t3.5 -1.5q26 -5 62 12t50 14q3 -1 5.5 -2.5t5 -5.5t4.5 -7.5t4.5 -9.5t4 -10l4.5 -12t5 -12q5 -13 17 -18.5t21 -8.5t9 -7q1 -3 4 -21
t0.5 -31.5t-12.5 -26.5q-13 -17 -62 -23t-55 -10q-2 -2 -8 -2.5t-15.5 1.5t-16.5 3.5l-21 4.5q-16 4 -24.5 5.5t-21.5 3.5t-17.5 0.5t-8.5 -5t0 -11.5t14.5 -21.5t28.5 -31.5q6 -6 43.5 -6.5t48.5 -8.5q23 -18 43.5 -27t29 -9.5t16 -9t12 -26t11.5 -59.5q3 -20 5 -37.5
t2.5 -31.5t-0.5 -26.5t-2 -21t-4 -17t-5 -13.5t-5.5 -10.5t-5 -7.5t-5 -5.5l-3.5 -3.5q-26 -31 -44.5 -44t-28 -11.5t-13.5 11.5q-4 7 7 23.5t22.5 32.5t8 37t-30.5 38l-79 48q-6 5 -15 11.5t-20.5 23t-4.5 26.5q1 0 4.5 5t5 7.5t3.5 9.5t1.5 12.5t-4 14.5t-10 18.5
t-18.5 22.5t-28 27q-25 21 -48.5 28t-40 4t-32 -4.5t-29.5 9t-27 37.5q-16 34 -23 61.5t-8 41.5t1 42t2 43l-2 69q5 3 14.5 7t39.5 12.5t61 13.5t77 3.5t90 -11.5zM739 96q-16 0 -24 16q-5 12 16 41q26 37 22 55q-4 17 -27 31l-79 49q-9 6 -19.5 14.5t-21 26.5t-1.5 30
q1 2 3 5q5 7 7 12.5t1 17.5t-15 30.5t-41 41.5q-35 30 -72 30q-8 0 -24 -2q-15 -2 -22 -2q-20 0 -34 12t-27 38q-17 36 -24.5 64t-7.5 46.5t1 41.5q2 24 2 40q0 53 -1 66l-6 6l10 4q9 5 25 11.5t63 16.5t94 10q53 0 104 -12q7 -2 10 -8q4 -8 -8 -33q-18 -37 -9 -50
q12 -15 18 -26v0q7 -1 13 -1q19 0 50 15q33 15 50 12q10 -3 17 -14.5t16 -36.5q4 -10 5 -13q5 -14 28 -21q20 -5 20 -16q0 -4 2 -15q8 -44 -12 -69q-7 -10 -22 -16t-26.5 -7.5t-32.5 -3.5q-31 -4 -37 -8q-5 -3 -15 -3v0q-13 0 -53 9q-41 10 -55 10q-7 0 -9 -1q-2 -12 43 -56
q4 -4 35 -4q43 0 56 -10q32 -24 65 -34q23 -7 31 -22.5t19 -78.5q6 -38 7 -68t-1.5 -47.5t-8.5 -32t-10 -20t-10 -11.5l-2 -2q-49 -58 -76 -58zM488 512q42 0 82 -34q37 -31 51.5 -56.5t12.5 -39.5t-14 -28q-1 -3 -2 -4q-5 -7 7.5 -22t29.5 -27l79 -48q29 -18 34 -42
q5 -25 -24 -67q-16 -22 -14 -26q3 -7 9 -7q20 0 64 53l3 3q39 42 18 165q-7 42 -11.5 58.5t-9.5 21.5t-17 9q-37 11 -71 36q-8 7 -46 7q-38 1 -46 9q-54 54 -46 73q4 11 23 11q15 0 59 -10q38 -9 49 -9v0h6q9 6 45 10q58 6 70 22q15 19 9 56q-2 11 -2 16q-2 1 -9 3
q-31 9 -39 30q-1 5 -5 13q-14 40 -21 41q-13 3 -40 -10q-35 -17 -57 -17q-8 0 -16 2q-8 1 -11 8q-5 10 -16 24q-16 20 7 66q7 15 8 18q-49 12 -100 12v0q-93 0 -170 -33q1 -15 1 -65q0 -16 -2 -42q-1 -21 -1 -38.5t7 -43.5t24 -61q11 -26 22 -33.5t24 -7.5q6 0 20 2
q17 2 26 2zM195 345zM162 345.5q0 -13.5 10 -23.5t23.5 -10t23 10t9.5 23.5t-9.5 23t-23 9.5t-23.5 -9.5t-10 -23zM195 304q-17 0 -29 12t-12 29t12 29t29 12t29 -12t12 -29t-12 -29t-29 -12zM195.5 370q-10.5 0 -18 -7t-7.5 -17.5t7.5 -18t18 -7.5t17.5 7.5t7 18t-7 17.5
t-17.5 7zM418 162zM365 162.5q0 -21.5 15.5 -37t37 -15.5t37 15.5t15.5 37t-15.5 36.5t-37 15t-37 -15t-15.5 -36.5zM417.5 102q-24.5 0 -42 18t-17.5 42.5t17.5 42t42 17.5t42.5 -17.5t18 -42t-18 -42.5t-42.5 -18zM417.5 207q-18.5 0 -31.5 -13t-13 -31.5t13 -31.5
t31.5 -13t31.5 13t13 31.5t-13 31.5t-31.5 13zM305 488zM295 488q0 -4 3 -7t7 -3q10 0 10 10q0 4 -3 7t-7 3q-10 0 -10 -10zM304.5 470q-7.5 0 -12.5 5t-5 12.5t5 13t12.5 5.5t13 -5.5t5.5 -13t-5.5 -12.5t-13 -5zM305 490q-2 0 -2 -2v0h4v0q0 2 -2 2zM892 380zM882 380
q0 -10 10 -10t10 10t-10 10t-10 -10zM892.5 362q-7.5 0 -13 5.5t-5.5 12.5t5.5 12.5t13 5.5t12.5 -5.5t5 -12.5t-5 -12.5t-12.5 -5.5zM892 382v0q-2 0 -2 -2h4q0 2 -2 2zM84 -38zM38 -38q0 -19 13.5 -33t32.5 -14t33 14t14 33t-14 32.5t-33 13.5t-32.5 -13.5t-13.5 -32.5z
M84 -94q-23 0 -39.5 16.5t-16.5 39.5t16.5 39.5t39.5 16.5t39.5 -16.5t16.5 -39.5t-16.5 -39.5t-39.5 -16.5zM84 -1q-15 0 -26 -11t-11 -26t11 -26t26 -11t26 11t11 26t-11 26t-26 11z" />
    <glyph glyph-name="qiugan" unicode="&#xe78e;" 
d="M514 369zM65 368.5q0 -91.5 35.5 -174.5t95.5 -143t143 -95.5t174.5 -35.5t174.5 35.5t143 95.5t95.5 143t35.5 174.5t-35.5 174.5t-95.5 143t-143 95.5t-174.5 35.5t-174.5 -35.5t-143 -95.5t-95.5 -143t-35.5 -174.5zM514 -89q-93 0 -178 36.5t-146 97.5t-97.5 146
t-36.5 178t36.5 177.5t97.5 146t146 97.5t178 36t177.5 -36t146 -97.5t97.5 -146t36 -177.5t-36 -178t-97.5 -146t-146 -97.5t-177.5 -36.5zM513.5 808q-89.5 0 -170.5 -35t-140 -94t-94 -140t-35 -170.5t35 -170.5t94 -140t140 -94t170.5 -35t170.5 35t140 94t94 140
t35 170.5t-35 170.5t-94 140t-140 94t-170.5 35zM805 762q19 -13 25.5 -33t-3.5 -36l-104 -155q-10 -15 -31 -16.5t-40.5 11.5t-26 33t3.5 35l104 155q11 16 32 17.5t40 -11.5zM687 512q-21 0 -41 13q-23 15 -30 39t5 42l105 155q14 22 43 22q22 0 41 -13q23 -15 30 -39
t-5 -43l-104 -155q-15 -21 -44 -21zM769 764q-19 0 -28 -13l-104 -155q-8 -12 -2.5 -28.5t21.5 -27.5q16 -10 34 -9t25 12l104 156q9 12 3 28t-22 27q-15 10 -31 10zM796 752zM681 752.5q0 -47.5 33.5 -81.5t81 -34t81 34t33.5 81.5t-33.5 81t-81 33.5t-81 -33.5t-33.5 -81z
M795.5 628q-51.5 0 -87.5 36.5t-36 87.5t36 87.5t87.5 36.5t87.5 -36.5t36 -87.5t-36 -87.5t-87.5 -36.5zM795.5 858q-43.5 0 -74.5 -31t-31 -74.5t31 -74.5t74.5 -31t74.5 31t31 74.5t-31 74.5t-74.5 31zM829 851q24 -13 35.5 -39.5t7.5 -57.5q-3 -30 -21.5 -51.5
t-40 -29.5t-39 -11t-22.5 -1q22 -11 47 -11v0q43 0 73.5 30t30.5 73q0 34 -20 60.5t-51 37.5zM225 307zM204 306.5q0 -8.5 6 -14.5t14.5 -6t14.5 6t6 14.5t-6 14.5t-14.5 6t-14.5 -6t-6 -14.5zM225 279q-12 0 -20 8t-8 20t8 20t20 8t20 -8t8 -20t-8 -20t-20 -8zM225 320
q-5 0 -9 -4t-4 -9t4 -9t9 -4t9 4t4 9t-4 9t-9 4zM461 71zM433 70.5q0 -11.5 8 -19.5t19.5 -8t20 8t8.5 19.5t-8.5 20t-20 8.5t-19.5 -8.5t-8 -20zM461 32q-16 0 -27.5 11.5t-11.5 27.5t11.5 27t27.5 11t27 -11t11 -27t-11 -27.5t-27 -11.5zM461 88q-7 0 -12.5 -5t-5.5 -12
t5.5 -12.5t12.5 -5.5t12 5.5t5 12.5t-5 12t-12 5zM843 377zM826 377q0 -7 5 -11.5t12 -4.5t11.5 4.5t4.5 11.5t-4.5 12t-11.5 5t-12 -5t-5 -12zM843 353q-10 0 -17.5 7t-7.5 17t7.5 17.5t17.5 7.5t17 -7.5t7 -17.5t-7 -17t-17 -7zM843 386q-9 0 -9 -9t9 -9t9 9t-9 9z
M295 532zM286 532q0 -9 9.5 -9t9.5 9t-9.5 9t-9.5 -9zM295.5 515q-7.5 0 -12.5 5t-5 12t5 12t12.5 5t12.5 -5t5 -12t-5 -12t-12.5 -5zM811 208zM802 208.5q0 -9.5 9.5 -9.5t9.5 9.5t-9.5 9.5t-9.5 -9.5zM811.5 191q-7.5 0 -12.5 5t-5 12.5t5 12.5t12.5 5t12.5 -5t5 -12.5
t-5 -12.5t-12.5 -5z" />
    <glyph glyph-name="waixingren" unicode="&#xe78f;" 
d="M512 384zM39 384q0 -96 37.5 -183.5t101 -151t151 -101t183.5 -37.5t183.5 37.5t151 101t101 151t37.5 183.5t-37.5 183.5t-101 151t-151 101t-183.5 37.5t-183.5 -37.5t-151 -101t-101 -151t-37.5 -183.5zM512 -99q-98 0 -187.5 38.5t-154 103t-103 154t-38.5 187.5
t38.5 187.5t103 154t154 103t187.5 38.5t187.5 -38.5t154 -103t103 -154t38.5 -187.5t-38.5 -187.5t-103 -154t-154 -103t-187.5 -38.5zM512 847q-94 0 -180 -36.5t-148 -98.5t-98.5 -148t-36.5 -180t36.5 -180t98.5 -148t148 -98.5t180 -36.5t180 36.5t148 98.5t98.5 148
t36.5 180t-36.5 180t-98.5 148t-148 98.5t-180 36.5zM512 633q-110 0 -188 -67.5t-78 -162.5q0 -60 45.5 -124.5t108 -104t112.5 -39.5q52 0 114.5 40t107 104t44.5 124q0 95 -78 162.5t-188 67.5zM409.5 273.5q-22.5 -7.5 -46 9.5t-34 49t-2 60t31 35.5t46 -10t34 -49.5
t2 -59.5t-31 -35zM702.5 332q-10.5 -32 -34 -49t-46 -9.5t-31 35t2 59.5t34 49.5t46 10t31 -35.5t-2 -60zM512 125q-54 0 -119 42t-111 108t-46 128q0 99 81 169.5t195 70.5t195 -70.5t81 -169.5q0 -63 -45.5 -129t-110.5 -107.5t-120 -41.5zM512 623q-106 0 -181 -64.5
t-75 -155.5q0 -56 43.5 -117.5t103.5 -101t109 -39.5q50 0 110 39t103 100.5t43 118.5q0 91 -75 155.5t-181 64.5zM635 261v0q-8 0 -16 3q-26 9 -36.5 40.5t1.5 66.5q10 30 31.5 49t44.5 19q9 0 17 -2q26 -9 36.5 -40.5t-1.5 -67.5q-10 -30 -31.5 -49t-45.5 -19zM660 420
q-17 0 -33 -15.5t-24 -39.5q-10 -28 -3 -52t25 -30q19 -7 39 9t29 43q9 28 2.5 52.5t-25.5 30.5q-5 2 -10 2v0zM396 261q-23 0 -44.5 19t-31.5 49q-12 36 -1.5 67.5t36.5 40.5q8 2 16 2v0q24 0 45.5 -19t31.5 -49q11 -34 2 -65q-10 -33 -37 -42q-8 -3 -17 -3v0zM371 420v0
q-5 0 -10 -2q-18 -6 -25 -30.5t3 -52.5q9 -27 29 -42.5t38 -9.5q18 5 25 28q8 25 -2 54q-8 24 -24 39.5t-34 15.5z" />
    <glyph glyph-name="raohang" unicode="&#xe790;" 
d="M512 -86q-95 0 -182 37t-150 100t-100 150t-37 182t37 182t100 150t150 100t182 37t182 -37t150 -100t100 -150t37 -182t-37 -182t-100 -150t-150 -100t-182 -37zM512 834q-92 0 -175.5 -35.5t-144 -96t-96 -144t-35.5 -175.5t35.5 -175.5t96 -144t144 -96t175.5 -35.5
t175.5 35.5t144 96t96 144t35.5 175.5t-35.5 175.5t-96 144t-144 96t-175.5 35.5zM949 423zM906 422.5q0 -17.5 12.5 -30t30 -12.5t30 12.5t12.5 30t-12.5 30t-30 12.5t-30 -12.5t-12.5 -30zM948.5 371q-21.5 0 -36.5 15t-15 36.5t15 36.5t36.5 15t36.5 -15t15 -36.5
t-15 -36.5t-36.5 -15zM948.5 456q-13.5 0 -23.5 -10t-10 -23.5t10 -23.5t23.5 -10t23.5 10t10 23.5t-10 23.5t-23.5 10zM422 398zM141 398.5q0 -116.5 82.5 -199t199 -82.5t198.5 82.5t82 199t-82 199t-198.5 82.5t-199 -82.5t-82.5 -199zM422 108q-120 0 -205 85t-85 205
t85 205.5t205 85.5t205 -85.5t85 -205.5t-85 -205t-205 -85zM422.5 670q-112.5 0 -192.5 -79.5t-80 -192t80 -192.5t192.5 -80t192 80t79.5 192.5t-79.5 192t-192 79.5zM238 370zM224 370.5q0 -5.5 4 -9.5t9.5 -4t9.5 4t4 9.5t-4 9.5t-9.5 4t-9.5 -4t-4 -9.5zM238 349
q-9 0 -15 6.5t-6 15t6 14.5t15 6t15 -6t6 -14.5t-6 -15t-15 -6.5zM238 376q-6 0 -6 -6t6 -6v0q6 0 6 6t-6 6v0zM411 178q-22 0 -37.5 15.5t-15.5 37.5t15.5 37.5t37.5 15.5t37.5 -15.5t15.5 -37.5t-15.5 -37.5t-37.5 -15.5zM411 246q-6 0 -10.5 -4.5t-4.5 -10.5t4.5 -10.5
t10.5 -4.5t10.5 4.5t4.5 10.5t-4.5 10.5t-10.5 4.5zM642 416zM631 416.5q0 -4.5 3 -8t7.5 -3.5t8 3.5t3.5 8t-3.5 7.5t-8 3t-7.5 -3t-3 -7.5zM642 398q-8 0 -13.5 5.5t-5.5 13t5.5 13t13.5 5.5t13 -5.5t5 -13t-5 -13t-13 -5.5zM642 420v0q-3 0 -3 -4q0 -5 5 -2q1 1 1 2
q0 4 -3 4zM284 518zM278 517.5q0 -6.5 6 -6.5t6 6.5t-6 6.5t-6 -6.5zM284 518zM270 517.5q0 -5.5 4 -9.5t10 -4t10 4t4 9.5t-4 9.5t-10 4t-10 -4t-4 -9.5zM622 306zM615 306q0 -6 6.5 -6t6.5 6t-6.5 6t-6.5 -6zM621.5 292q-5.5 0 -9.5 4t-4 10t4 10t9.5 4t9.5 -4t4 -10
t-4 -10t-9.5 -4zM411 231zM377 231q0 -14 10 -24t24 -10t24 10t10 24t-10 24t-24 10t-24 -10t-10 -24z" />
    <glyph glyph-name="taikong" unicode="&#xe791;" 
d="M512 383zM52 382.5q0 -93.5 36.5 -178.5t98 -147t146.5 -98.5t179 -36.5t179 36.5t146.5 98.5t98 147t36.5 178.5t-36.5 179t-98 147t-146.5 98t-179 36.5t-179 -36.5t-146.5 -98t-98 -147t-36.5 -179zM512 -87q-95 0 -182.5 37t-150 100t-100 150t-37.5 182.5
t37.5 182.5t100 150t150 100.5t182.5 37.5t182.5 -37.5t150 -100.5t100 -150t37.5 -182.5t-37.5 -182.5t-100 -150t-150 -100t-182.5 -37zM512 833q-92 0 -175 -35.5t-143.5 -96t-96.5 -144t-36 -175t36 -175t96.5 -144t143.5 -96t175 -35.5t175 35.5t143.5 96t96.5 144
t36 175t-36 175t-96.5 144t-143.5 96t-175 35.5zM238 279q0 -102 42.5 -191t116.5 -151q58 -15 115 -15q94 0 179 36.5t146.5 98t98 147t36.5 179.5q0 164 -103 291q-93 47 -195 47q-89 0 -169.5 -35t-139 -94.5t-93 -141t-34.5 -171.5zM512 -87q-58 0 -118 15l-2 1l-1 1
q-78 65 -120.5 156t-42.5 193q0 91 35.5 175t95 144.5t142 96t173.5 35.5q104 0 199 -48l2 -1l1 -1q106 -130 106 -297q0 -96 -37.5 -183t-100 -150t-150 -100t-182.5 -37zM401 -54q57 -14 111 -14q92 0 175 35.5t143.5 96t96.5 144t36 175.5q0 159 -100 283q-90 45 -189 45
q-116 0 -214 -58t-155.5 -157.5t-57.5 -216.5q0 -97 40.5 -184t113.5 -149zM336 540zM244 539.5q0 -37.5 27 -64.5t65 -27t64.5 27t26.5 64.5t-26.5 64.5t-64.5 27t-65 -27t-27 -64.5zM336 438q-42 0 -71.5 30t-29.5 71.5t29.5 71.5t71.5 30t71.5 -30t29.5 -71.5
t-29.5 -71.5t-71.5 -30zM336 622q-34 0 -58 -24.5t-24 -58t24 -57.5t58 -24t58 24t24 57.5t-24 58t-58 24.5zM625 705zM574 705q0 -21 15 -35.5t36 -14.5t35.5 14.5t14.5 35.5t-14.5 36t-35.5 15t-36 -15t-15 -36zM625 645q-25 0 -42.5 17.5t-17.5 42.5t17.5 42.5t42.5 17.5
t42.5 -17.5t17.5 -42.5t-17.5 -42.5t-42.5 -17.5zM625 746q-17 0 -29 -12t-12 -29t12 -29t29 -12t29 12t12 29t-12 29t-29 12zM376 738.5q4 -10.5 17 -14t28.5 2t23.5 17t4 22t-17.5 14t-28.5 -2t-23 -17t-4 -22zM404 713q-29 0 -37 22q-6 16 5 31q10 14 28 20q10 4 21 4
q29 0 37 -22q5 -15 -5 -30q-10 -14 -28 -21q-10 -3 -21 -4zM421 771q-8 0 -15 -3q-12 -4 -18 -13q-5 -7 -3 -13t12 -8t21 1q13 5 19 14q5 7 3 13q-4 9 -19 9zM124 409q10 -6 22.5 0t20.5 19.5t7.5 27.5t-10.5 19.5t-22.5 0t-21 -19.5t-7.5 -27.5t11 -19.5zM134 397v0
q-8 0 -15 4q-13 8 -15 25.5t8 34.5q11 17 27.5 24t29.5 -1t15 -25.5t-9 -35.5q-16 -26 -41 -26zM153 469q-14 0 -24 -18q-6 -11 -6 -20.5t6 -13t14.5 0.5t15.5 15q6 12 6 21.5t-6 12.5q-2 2 -5 2h-1zM183 153v0q16 2 25 20.5t5.5 41.5t-17 38t-30.5 12v0q-16 -2 -25 -20
t-5.5 -41.5t17.5 -38t30 -12.5zM179 143q-19 0 -34 17t-19 42q-4 28 7 49t31.5 24t37.5 -14.5t21 -44.5q4 -26 -6 -47q-12 -23 -33 -26h-5zM170 256v0h-2q-12 -2 -19 -17t-4 -34t13.5 -31.5t22.5 -11.5q12 2 19 16q7 15 4 35q-2 18 -12 30.5t-22 12.5zM390 596
q13 -19 13 -42q0 -33 -23.5 -55.5t-56.5 -22.5v0q-31 0 -53 20q23 -35 66 -35q33 0 56.5 22.5t23.5 54.5q0 35 -26 58zM530 274q16 -23 16 -50q0 -37 -28 -64t-68 -27q-37 0 -64 24q29 -41 80 -41q40 0 68 26.5t28 64.5q0 40 -32 67zM201.5 214q-2.5 18 -12 29.5t-21.5 9.5
h-1q9 -3 16.5 -13.5t9.5 -25.5q2 -17 -4 -31t-17 -17q4 -1 8 0q11 2 17.5 16t4 32zM160 432.5q5 8.5 3.5 18.5t-9.5 14q0 1 -1 1q11 -13 2 -29q-5 -9 -13.5 -12t-15.5 1q2 -2 4 -3q8 -5 16.5 -2t13.5 11.5zM418.5 738q9.5 4 14 11t1.5 13v1q0 -13 -17 -20q-22 -10 -29 3
q0 -2 1 -4q3 -6 11.5 -7t18 3zM651 732q5 -10 5 -21v0q0 -16 -10 -27t-25 -11q-13 0 -24 10q11 -17 30 -17q15 0 25 11t10 27t-11 28zM791 488q6 -11 6 -23v0q0 -17 -12 -29t-29 -12v0q-15 0 -27 11q5 -8 15 -13.5t19 -5.5v0q17 0 29 12t12 29q0 18 -13 31z" />
    <glyph glyph-name="sanqiu" unicode="&#xe792;" 
d="M517 -33q-106 0 -196.5 52.5t-143 143t-52.5 196.5t52.5 196.5t143 143t196.5 52.5t196.5 -52.5t143 -143t52.5 -196.5t-52.5 -196.5t-143 -143t-196.5 -52.5zM517 735q-102 0 -188.5 -50.5t-137 -137t-50.5 -188.5t50.5 -188.5t137 -137t188.5 -50.5t188.5 50.5t137 137
t50.5 188.5t-50.5 188.5t-137 137t-188.5 50.5zM517 45q-130 0 -222 92t-92 222t92 222t222 92t222 -92t92 -222t-92 -222t-222 -92zM517 657q-123 0 -210.5 -87.5t-87.5 -210.5t87.5 -210.5t210.5 -87.5t210.5 87.5t87.5 210.5t-87.5 210.5t-210.5 87.5zM517 125
q-97 0 -165.5 68.5t-68.5 165.5t68.5 165.5t165.5 68.5t165.5 -68.5t68.5 -165.5t-68.5 -165.5t-165.5 -68.5zM517 577q-90 0 -154 -64t-64 -154t64 -154t154 -64t154 64t64 154t-64 154t-154 64zM90 95zM49 95q0 -17 12 -29t29 -12t29 12t12 29t-12 29t-29 12t-29 -12
t-12 -29zM90.5 46q-20.5 0 -35 14.5t-14.5 35t14.5 34.5t35 14t35 -14t14.5 -34.5t-14.5 -35t-35 -14.5zM90.5 128q-13.5 0 -23.5 -9.5t-10 -23.5t10 -23.5t23.5 -9.5t23 9.5t9.5 23.5t-9.5 23.5t-23 9.5zM897 41zM865 41.5q0 -13.5 9.5 -23t22.5 -9.5t22.5 9.5t9.5 23
t-9.5 23t-22.5 9.5t-22.5 -9.5t-9.5 -23zM897 1q-17 0 -28.5 12t-11.5 28.5t11.5 28.5t28.5 12t28.5 -12t11.5 -28.5t-11.5 -28.5t-28.5 -12zM897 66q-10 0 -17 -7.5t-7 -17.5t7 -17t17 -7t17 7t7 17t-7 17.5t-17 7.5zM516.5 210q-61.5 0 -105 44t-43.5 105.5t43.5 105
t105 43.5t105.5 -43.5t44 -105t-44 -105.5t-105.5 -44zM517 492q-55 0 -94 -39t-39 -94t39 -94t94 -39t94 39t39 94t-39 94t-94 39zM238 646zM138 645.5q0 -41.5 29.5 -70.5t70.5 -29t70 29t29 70.5t-29 70.5t-70 29t-70.5 -29t-29.5 -70.5zM237.5 538q-44.5 0 -76 31.5
t-31.5 76t31.5 76t76 31.5t76 -31.5t31.5 -76t-31.5 -76t-76 -31.5zM238 737q-38 0 -64.5 -27t-26.5 -64.5t26.5 -64.5t64.5 -27t64.5 27t26.5 64.5t-26.5 64.5t-64.5 27z" />
    <glyph glyph-name="wangyuanjing" unicode="&#xe793;" 
d="M825 530q2 -6 2 -13q0 -12 -7.5 -23t-18.5 -15l-643 -225q-6 -3 -13 -3q-12 0 -23 8t-15 19l-59 169q-2 6 -2 13q0 12 7.5 23t18.5 15l643 225q6 3 13 3q12 0 23 -8t15 -19zM145 242q-15 0 -28.5 9.5t-18.5 23.5l-59 169q-3 8 -3 16q0 11 5 21q9 19 28 26l643 225
q8 3 16 3v0q14 0 28 -9.5t19 -23.5l59 -169q3 -8 3 -16q0 -11 -5 -21q-9 -19 -28 -26l-643 -225q-8 -3 -16 -3v0zM728 716q-5 0 -10 -2l-643 -225q-12 -4 -17 -16q-3 -6 -3 -13q0 -5 2 -10l59 -169q4 -11 15.5 -17t23.5 -1l642 225q12 4 18 16q3 6 3 13q0 5 -2 10l-59 169
q-3 8 -11.5 14t-17.5 6zM965 546q8 -21 -1 -41t-30 -28l-78 -30q-21 -7 -41 2t-28 29l-90 236q-8 21 1 41t30 28l78 30q21 8 41 -1t28 -30zM837 434q-20 0 -36 11.5t-23 29.5l-90 236q-9 24 1.5 48t34.5 33l79 30q10 4 22 4v0q19 0 35.5 -11t23.5 -29l90 -237
q9 -24 -1.5 -47.5t-35.5 -33.5l-78 -29q-11 -5 -22 -5v0zM825 807q-8 0 -16 -3l-78 -30q-17 -6 -24.5 -22.5t-0.5 -33.5l90 -236q6 -17 23 -24.5t33 -1.5l79 30q16 7 24 23q4 9 4 18q0 8 -3 16l-90 236q-5 11 -17 19.5t-24 8.5zM553 88q0 -10 -7 -17.5t-17 -7.5h-62v0
q-10 0 -17 7.5t-7 17.5v186q0 11 7 18t17 7h62q10 0 17 -7t7 -18v-186zM529 54h-62q-14 0 -24 10t-10 24v186q0 15 10 25t24 10h62q14 0 24 -10t10 -25v-186q0 -14 -10 -24t-24 -10zM467 290q-6 0 -10.5 -4.5t-4.5 -11.5v-186q0 -6 4.5 -10.5t10.5 -4.5h62q6 0 10.5 4.5
t4.5 10.5v186q0 7 -4.5 11t-10.5 5h-62zM495 351zM377 351.5q0 -48.5 34.5 -83t83.5 -34.5t83 34.5t34 83t-34 83t-83 34.5t-83.5 -34.5t-34.5 -83zM494.5 224q-52.5 0 -89.5 37.5t-37 90t37 89.5t89.5 37t90 -37t37.5 -89.5t-37.5 -90t-90 -37.5zM495 459
q-45 0 -76.5 -31.5t-31.5 -76t31.5 -76.5t76.5 -32t76.5 32t31.5 76.5t-31.5 76t-76.5 31.5zM812 -9q0 -16 -11.5 -27.5t-28.5 -11.5h-543q-16 0 -27.5 11.5t-11.5 27.5v56q0 16 11.5 27.5t27.5 11.5h543q17 0 28.5 -11.5t11.5 -27.5v-56zM772 -58h-543q-20 0 -34.5 14.5
t-14.5 34.5v56q0 20 14.5 34.5t34.5 14.5h543q21 0 35 -14.5t14 -34.5v-56q0 -20 -14 -34.5t-35 -14.5zM229 77q-12 0 -21 -9t-9 -21v-56q0 -12 9 -21t21 -9h543q13 0 21.5 9t8.5 21v56q0 12 -8.5 21t-21.5 9h-543z" />
    <glyph glyph-name="xingqiu" unicode="&#xe794;" 
d="M521 380zM51 380.5q0 -95.5 37 -182.5t100 -150t150 -100.5t182.5 -37.5t182.5 37.5t150 100.5t100 150t37 182.5t-37 182.5t-100 149.5t-150 100t-182.5 37.5t-182.5 -37.5t-150 -100t-100 -149.5t-37 -182.5zM520.5 -99q-97.5 0 -186 38t-153 102t-102.5 153t-38 186.5
t38 186t102.5 153t153 102.5t186 38t186.5 -38t153 -102.5t102 -153t38 -186t-38 -186.5t-102 -153t-153 -102t-186.5 -38zM520.5 840q-93.5 0 -178.5 -36.5t-146.5 -98t-98 -146.5t-36.5 -178.5t36.5 -179t98 -147t146.5 -98t178.5 -36.5t178.5 36.5t147 98t98.5 147
t36.5 179t-36.5 178.5t-98.5 146.5t-147 98t-178.5 36.5zM664 811q-124 23 -243 -22t-198 -148q-75 -98 -90.5 -217.5t30.5 -231t144 -186.5q24 -18 61.5 -38.5t66.5 -30.5q-44 8 -101 33.5t-93 52.5q-97 75 -143 186.5t-30.5 231t89.5 217.5q60 78 146 124t177 52t184 -23z
M335 298zM288 297.5q0 -19.5 14 -33.5t33.5 -14t33.5 14t14 33.5t-14 33.5t-33.5 14t-33.5 -14t-14 -33.5zM335 242q-23 0 -39 16.5t-16 39.5t16 39t39 16t39.5 -16t16.5 -39t-16.5 -39.5t-39.5 -16.5zM335 337q-16 0 -27.5 -11.5t-11.5 -28t11.5 -28t27.5 -11.5t27.5 11.5
t11.5 28t-11.5 28t-27.5 11.5zM227 560zM197 560.5q0 -12.5 8.5 -21.5t21 -9t21.5 9t9 21.5t-9 21t-21.5 8.5t-21 -8.5t-8.5 -21zM227 522q-16 0 -27 11.5t-11 27t11 26.5t27 11t27 -11t11 -26.5t-11 -27t-27 -11.5zM227 582q-9 0 -15.5 -6.5t-6.5 -15.5t6.5 -15t15.5 -6
t15.5 6t6.5 15t-6.5 15.5t-15.5 6.5zM605 351zM586 351q0 -8 5.5 -13.5t14 -5.5t14 5.5t5.5 13.5t-5.5 14t-14 6t-14 -6t-5.5 -14zM605.5 324q-11.5 0 -19.5 8t-8 19.5t8 19.5t19.5 8t19.5 -8t8 -19.5t-8 -19.5t-19.5 -8zM605.5 363q-4.5 0 -8 -3.5t-3.5 -8t3.5 -8t8 -3.5
t8 3.5t3.5 8t-3.5 8t-8 3.5zM424 693zM406 693.5q0 -7.5 5 -12.5t12.5 -5t12.5 5t5 12.5t-5 12.5t-12.5 5t-12.5 -5t-5 -12.5zM423.5 668q-10.5 0 -18 7.5t-7.5 18t7.5 18t18 7.5t18.5 -7.5t8 -18t-8 -18t-18.5 -7.5zM424 703q-9 0 -9 -9.5t9 -9.5t9 9.5t-9 9.5zM722 631
q-4 11 -16 13l-49 7l-22 43q-5 11 -17.5 11t-18.5 -11l-21 -43l-49 -7q-12 -2 -16 -13q-1 -3 -1 -7q0 -8 6 -13l36 -36l-9 -49q-2 -12 9 -19q10 -7 21 -1l42 23l43 -23q4 -2 10 -2t11 3q10 7 8 19l-8 49l36 36q6 5 6 13q0 4 -1 7zM669 496q-7 0 -13 3l-39 20l-38 -20
q-16 -8 -30 2q-15 10 -12 27l8 45l-33 32q-12 12 -7 28q6 16 23 19l45 6l19 40q8 15 25.5 15t25.5 -15l19 -40l45 -6q17 -3 22 -19q6 -16 -6 -28l-33 -32l7 -45q3 -17 -11 -27q-8 -5 -17 -5zM617 538l47 -25q2 -1 5 -1q4 0 7 2q7 4 5 11l-9 53l39 38q5 5 3 12t-10 8l-53 7
l-23 48q-3 6 -11 6t-11 -6l-23 -48l-53 -7q-7 -1 -9 -8q-1 -2 -1 -4q0 -4 3 -8l39 -38l-9 -53q-1 -7 5 -11t13 -1zM669 811q107 -55 156 -172.5t34 -254.5q-6 -56 -24 -105t-44 -86t-59 -69t-69 -54t-73.5 -40t-74 -28.5t-69 -17.5t-59 -9.5t-44.5 -2.5t-25 3
q40 -21 100.5 -35.5t105.5 -14.5h1q92 0 176.5 36t145.5 97t97 145t36 177q0 148 -87 266.5t-224 164.5zM874 401zM835 401.5q0 -16.5 11.5 -28t27.5 -11.5t27.5 11.5t11.5 28t-11.5 28t-27.5 11.5t-27.5 -11.5t-11.5 -28zM873.5 354q-19.5 0 -33 14t-13.5 33.5t13.5 33.5
t33 14t33.5 -14t14 -33.5t-14 -33.5t-33.5 -14zM874 432q-13 0 -22 -9t-9 -21.5t9 -22t22 -9.5t22 9.5t9 22t-9 21.5t-22 9z" />
    <glyph glyph-name="xinggui" unicode="&#xe795;" 
d="M518 324zM158 323.5q0 -97.5 48 -180t131 -131t180.5 -48.5t180.5 48.5t131 131t48 180t-48 180.5t-131 131t-180.5 48t-180.5 -48t-131 -131t-48 -180.5zM517.5 -43q-99.5 0 -184 49t-133.5 133.5t-49 184t49 184.5t133.5 134t184 49t184 -49t134 -134t49.5 -184.5
t-49.5 -184t-134 -133.5t-184 -49zM517.5 676q-95.5 0 -176.5 -47t-128.5 -128.5t-47.5 -177t47.5 -176.5t128.5 -128t176.5 -47t176.5 47t128.5 128t47.5 176.5t-47.5 177t-128.5 128.5t-176.5 47zM561 518.5q-124 35.5 -239.5 49t-201 -2.5t-99.5 -65t50 -107.5
t170 -107.5t230 -84.5t239.5 -49.5t201 2t99.5 65.5t-50.5 108t-170 107.5t-229.5 84.5zM990.5 224.5q-9.5 -33.5 -79.5 -48.5t-187.5 -4.5t-248 47.5t-235.5 90t-156.5 102.5t-42 83t79 48t187 4.5t248 -47t236 -90.5t157 -102.5t42 -82.5zM275 574q-13 -9 -30 -30
q126 -2 306 -53q199 -57 315 -132q0 4 -8 46q-158 93 -294 131q-47 14 -103.5 22t-88 10.5t-97.5 5.5zM660 456zM568 456q0 -38 27 -65.5t65.5 -27.5t65.5 27.5t27 65.5t-27 65.5t-65.5 27.5t-65.5 -27.5t-27 -65.5zM660 357v0q-13 0 -27 4q-39 11 -59 47t-9 75
q9 32 35.5 52t59.5 20q14 0 27 -4q17 -5 34 -18.5t26 -28.5q12 -22 12 -48q0 -14 -4 -27q-9 -32 -35.5 -52t-59.5 -20zM660 542q-28 0 -51.5 -17.5t-31.5 -44.5q-9 -35 8 -66t52 -41q11 -3 23 -3q29 0 52.5 17.5t31.5 44.5q9 35 -8.5 66t-51.5 41q-12 3 -24 3zM312 453z
M259 452.5q0 -21.5 15.5 -37t37.5 -15.5t37 15.5t15 37t-15 37t-37 15.5t-37.5 -15.5t-15.5 -37zM312 394q-8 0 -16 2q-24 7 -35.5 28t-5.5 45q6 18 21.5 30t35.5 12q8 0 16 -2q10 -3 20 -11t15 -17q8 -13 8 -28q0 -9 -3 -17q-5 -18 -21 -30t-35 -12zM312 499
q-16 0 -28 -9.5t-17 -24.5q-5 -18 4.5 -35t27.5 -22q6 -2 13 -2q15 0 27.5 9.5t16.5 24.5q2 6 2 13q0 12 -6 22q-9 17 -27 22q-7 2 -13 2zM456 348zM424 348q0 -13 9.5 -22t22.5 -9t22 9t9 22t-9 22.5t-22 9.5t-22.5 -9.5t-9.5 -22.5zM456 311v0v0q-6 0 -11 1q-15 4 -22 18
q-5 9 -5 18q0 6 2 11q3 11 13.5 19t22.5 8q5 0 10 -1q15 -5 22.5 -18.5t3.5 -28.5q-3 -11 -13.5 -19t-22.5 -8zM456 374q-8 0 -15 -5.5t-10 -13.5q-1 -3 -1 -7q0 -6 4 -12q5 -9 15 -12t19 2.5t12 14.5q1 4 1 7q0 11 -7.5 18.5t-17.5 7.5zM703 258zM683 258q0 -8 6 -14t14 -6
t14 6t6 14t-6 14t-14 6t-14 -6t-6 -14zM703 232q-11 0 -18.5 7.5t-7.5 18.5q0 4 1 7q3 10 12.5 15.5t19.5 2.5t16 -12q3 -6 3 -13q0 -3 -1 -7q-2 -8 -9.5 -13.5t-15.5 -5.5zM703 272q-10 0 -13 -10v-4q0 -10 9 -13q6 -1 11 1.5t6 7.5q1 2 1 4q0 4 -2 7q-3 5 -8 6q-2 1 -4 1z
M465 148zM416 147.5q0 -20.5 14 -34.5t34.5 -14t34.5 14t14 34.5t-14 34.5t-34.5 14t-34.5 -14t-14 -34.5zM465 92q-8 0 -15 3q-22 6 -33.5 26t-4.5 42q5 17 19.5 28.5t33.5 11.5q7 0 15 -3q22 -6 33 -26t4 -42q-5 -17 -19.5 -28.5t-32.5 -11.5zM465 190q-15 0 -26.5 -8.5
t-14.5 -22.5q-5 -17 3.5 -32.5t25.5 -19.5q6 -2 12 -2q14 0 25.5 8.5t15.5 22.5q4 17 -4.5 32.5t-25.5 20.5q-5 1 -11 1zM154 677zM127 677.5q0 -11.5 8 -19.5t19 -8t19 8t8 19.5t-8 19.5t-19 8t-19 -8t-8 -19.5z" />
    <glyph glyph-name="xinghe" unicode="&#xe796;" 
d="M512 351zM78 351q0 -88 34.5 -168.5t92.5 -138.5t138.5 -92.5t168.5 -34.5t168.5 34.5t138.5 92.5t92.5 138.5t34.5 168.5t-34.5 168.5t-92.5 139t-138.5 92.5t-168.5 34t-168.5 -34t-138.5 -92.5t-92.5 -139t-34.5 -168.5zM512 -92q-90 0 -172 35t-141.5 94.5
t-94.5 141.5t-35 172t35 172t94.5 141.5t141.5 94.5t172 35t172 -35t141.5 -94.5t94.5 -141.5t35 -172t-35 -172t-94.5 -141.5t-141.5 -94.5t-172 -35zM512 776q-115 0 -213 -57t-155 -155t-57 -213t57 -213t155 -155t213 -57t213 57t155 155t57 213t-57 213t-155 155
t-213 57zM512 351zM166 351q0 -94 46.5 -173.5t126 -126t173.5 -46.5t173.5 46.5t126 126t46.5 173.5t-46.5 173.5t-126 126t-173.5 46.5t-173.5 -46.5t-126 -126t-46.5 -173.5zM512 -4q-96 0 -178 47.5t-129.5 129.5t-47.5 178t47.5 178t129.5 129.5t178 47.5t178 -47.5
t129.5 -129.5t47.5 -178t-47.5 -178t-129.5 -129.5t-178 -47.5zM512 688q-91 0 -169 -45t-123 -123t-45 -169t45 -169t123 -123t169 -45t169 45t123 123t45 169t-45 169t-123 123t-169 45zM512 351zM256 351q0 -106 75 -181t181 -75t181 75t75 181t-75 181t-181 75t-181 -75
t-75 -181zM512 86q-110 0 -187.5 77.5t-77.5 187.5t77.5 187.5t187.5 77.5t187.5 -77.5t77.5 -187.5t-77.5 -187.5t-187.5 -77.5zM512 598q-102 0 -174.5 -72.5t-72.5 -174.5t72.5 -174.5t174.5 -72.5t174.5 72.5t72.5 174.5t-72.5 174.5t-174.5 72.5zM257 290zM180 290
q0 -32 22.5 -54.5t54.5 -22.5t54.5 22.5t22.5 54.5t-22.5 54.5t-54.5 22.5t-54.5 -22.5t-22.5 -54.5zM257.5 204q-35.5 0 -61 25.5t-25.5 61t25.5 60.5t61 25t60.5 -25t25 -60.5t-25 -61t-60.5 -25.5zM257 358q-28 0 -48 -20t-20 -48t20 -48t48 -20t48 20t20 48t-20 48
t-48 20zM702 775zM625 775.5q0 -31.5 22.5 -54.5t54.5 -23t54.5 23t22.5 54.5t-22.5 54t-54.5 22.5t-54.5 -22.5t-22.5 -54zM701.5 689q-35.5 0 -60.5 25.5t-25 61t25 60.5t60.5 25t61 -25t25.5 -60.5t-25.5 -61t-61 -25.5zM702 843q-28 0 -48 -20t-20 -48t20 -47.5
t48 -19.5t48 19.5t20 47.5t-20 48t-48 20zM797 -2zM720 -2q0 -32 22.5 -54.5t54.5 -22.5t54.5 22.5t22.5 54.5t-22.5 54.5t-54.5 22.5t-54.5 -22.5t-22.5 -54.5zM797.5 -88q-35.5 0 -61 25t-25.5 60.5t25.5 61t61 25.5t60.5 -25.5t25 -61t-25 -60.5t-60.5 -25zM797 66
q-28 0 -48 -20t-20 -48t20 -48t48 -20t48 20t20 48t-20 48t-48 20zM512 351zM353 351q0 -66 46.5 -112.5t112.5 -46.5t112.5 46.5t46.5 112.5t-46.5 112.5t-112.5 46.5t-112.5 -46.5t-46.5 -112.5zM512 183q-70 0 -119 49t-49 119t49 119t119 49t119 -49t49 -119t-49 -119
t-119 -49zM512 501q-62 0 -106 -44t-44 -106t44 -106t106 -44t106 44t44 106t-44 106t-106 44z" />
    <glyph glyph-name="xingxi" unicode="&#xe797;" 
d="M537 379q-124 22 -237.5 24.5t-194.5 -21.5t-90 -73t59 -99.5t175 -88t231 -59.5t237.5 -24t194.5 21.5t90 72.5t-59 99.5t-175 88t-231 59.5zM982 136q-6 -33 -74.5 -54.5t-177.5 -23t-247 22.5q-98 17 -185 45.5t-145 60t-90 63t-28 55.5q6 34 74.5 55t177 22.5
t247.5 -21.5q98 -18 185 -46.5t145 -59.5t90 -62.5t28 -56.5zM315 550q19 31 44 56q62 64 146 87t169 1.5t148 -84.5q53 -52 77.5 -120t19.5 -139l19 -6q7 77 -19 150t-83 129q-67 67 -157 89.5t-179 -2t-155 -91.5q-29 -29 -50 -63zM296 536zM219 535.5q0 -31.5 22.5 -54
t54 -22.5t54 22.5t22.5 54t-22.5 54t-54 22.5t-54 -22.5t-22.5 -54zM295.5 452q-34.5 0 -59 24.5t-24.5 59t24.5 59t59 24.5t59 -24.5t24.5 -59t-24.5 -59t-59 -24.5zM295.5 605q-28.5 0 -49 -20.5t-20.5 -49t20.5 -49t49 -20.5t49 20.5t20.5 49t-20.5 49t-49 20.5zM318 601
q16 -8 23.5 -26t5.5 -38q-3 -26 -23 -41.5t-37 -19t-23 -1.5q15 -8 32 -8v0q29 0 49 20.5t20 48.5q0 23 -13 40.5t-34 24.5zM923 368zM885 368.5q0 -15.5 11 -27t27 -11.5t27 11.5t11 27t-11 26.5t-27 11t-27 -11t-11 -26.5zM923 323q-19 0 -32 13.5t-13 32t13 31.5t32 13
t32 -13t13 -31.5t-13 -32t-32 -13.5zM923 399q-13 0 -22 -9t-9 -21.5t9 -21.5t22 -9t22 9t9 21.5t-9 21.5t-22 9zM567 58zM517 57.5q0 -20.5 14.5 -35t35 -14.5t35 14.5t14.5 35t-14.5 35.5t-35 15t-35 -15t-14.5 -35.5zM770 389q-7 19 -27 22l-83 12l-36 74
q-10 19 -31.5 19t-30.5 -19l-36 -74l-83 -12q-20 -3 -27 -22q-6 -19 8 -34l61 -60l-14 -83q-3 -20 14 -32t36 -2l72 38l72 -38q8 -4 16 -4v0q11 0 20 6q17 12 14 32l-14 83l61 60q14 15 8 34zM681 167q-10 0 -19 4l-69 37l-69 -37q-22 -11 -43 3t-17 39l13 80l-58 57
q-18 18 -10 41q9 24 33 27l79 12l35 70q11 23 37 23t37 -23l34 -70l80 -12q24 -4 32 -27q9 -23 -9 -41l-58 -57l13 -80q4 -25 -17 -39q-11 -7 -24 -7v0zM593 224l76 -40q14 -8 28 1.5t11 25.5l-15 87l64 62q11 11 6 26t-22 18l-86 12l-38 77q-7 15 -24 15t-24 -15l-38 -77
l-87 -12q-16 -3 -21 -17.5t6 -26.5l64 -62l-15 -87q-3 -16 11 -25t29 -2z" />
    <glyph glyph-name="yuhangyuan2" unicode="&#xe798;" 
d="M512 -101q133 0 242 59l-5 78q0 6 -1.5 15t-9.5 33t-20 44t-35.5 40.5t-54.5 29.5l-3.5 -2.5t-10.5 -6.5t-16 -7.5t-22 -5.5t-27 -2l-31 9q-2 0 -5.5 -2t-5 -2t-9 7t-9.5 7l-16 -7q-14 -1 -27.5 0.5t-22.5 3.5t-16 4t-10.5 3.5t-4.5 1.5q-30 -8 -53.5 -28.5t-35 -41.5
t-18.5 -44t-8.5 -34t-1.5 -15l-1 -82q101 -55 238 -55zM512 -110q-139 0 -242 55l-5 3v88q1 6 2.5 16.5t9 35.5t19.5 47t37 43t57 30h2q2 0 7 -1q34 -13 71 -12l17 8h3q5 0 15 -10l4 -4q4 3 8 4h2l32 -9q37 -2 69 20q5 3 8 3h3q32 -9 57 -30t37.5 -42.5t21 -46.5t10 -35
t2.5 -16l5 -84l-5 -3q-111 -60 -247 -60zM284 -41q97 -50 228 -50q127 0 233 55l-5 72q0 5 -1.5 13.5t-9 31t-18.5 41.5t-32.5 38t-49.5 28q-36 -25 -80 -23h-2l-29 8v0q-6 -3 -10 -4q-6 1 -16 10l-4 4l-15 -6q-42 -2 -80 12h-1q-28 -8 -49 -27.5t-31.5 -38.5t-17.5 -41.5
t-8.5 -31.5t-1.5 -14v-77zM608 -26v0q0 -8 -7 -8h-177v0q-8 0 -8 8v119v0q0 8 7 8h177v0q8 0 8 -8v-119zM424 -42q-7 0 -11.5 4.5t-4.5 11.5v119q0 7 4.5 11.5t10.5 4.5h177q7 0 11.5 -4.5t4.5 -11.5v-119q0 -7 -4.5 -11.5t-10.5 -4.5h-177zM600 93h-177l1 -119h177zM454 67
h50v-20h-50v20zM520 67h50v-20h-50v20zM454 31h116v-31h-116v31zM340 200l366 7q64 48 104.5 121t46.5 155q2 17 1 34q-1 92 -49 168.5t-128.5 120.5t-174.5 42t-173 -48.5t-124 -125t-43 -169.5q1 -90 49 -172t125 -133zM337 191l-2 1q-80 53 -128.5 138t-50.5 175
q-2 93 44.5 174t127.5 128.5t178 49.5h6q95 0 176.5 -45.5t129.5 -123.5t50 -170v-7q0 -15 -1 -29q-7 -84 -48 -158.5t-108 -124.5l-2 -1zM512 839l-6 -1q-91 -1 -168 -46.5t-121 -121.5t-42 -165q1 -85 47 -165t121 -130l359 6q63 47 101.5 118t44.5 150q1 17 1 33
q-1 87 -47 161t-123 117.5t-167 43.5zM352 221h330q56 45 90.5 115t33.5 140q-2 117 -89.5 197.5t-209.5 78t-206.5 -86t-82.5 -199.5q2 -71 38 -136.5t96 -108.5zM686 211l-337 1l-2 2q-63 45 -100 112.5t-38 138.5q-2 120 85 207t213 89h6q123 0 211.5 -83.5t90.5 -201.5
q1 -70 -34 -142.5t-93 -120.5zM355 231l324 -1q54 45 86.5 112.5t30.5 133.5q-2 110 -85 188t-198 78h-6q-118 -2 -199.5 -83t-79.5 -193q1 -67 35 -130t92 -105zM708 196q0 -14 -4.5 -24.5t-11.5 -10.5h-360q-7 0 -11.5 10.5t-4.5 24.5t4.5 24t11.5 10h360q7 0 11.5 -10
t4.5 -24zM692 152h-360q-11 0 -18.5 12.5t-7.5 31.5t7.5 31t18.5 12h360q11 0 18.5 -12t7.5 -31t-7.5 -31.5t-18.5 -12.5zM691 221h-359q-7 -4 -7 -25q0 -22 8 -25h359q7 4 7 25q0 22 -8 25zM571 559.5q11 12.5 22 3.5l57 -50q11 -9 0 -21.5t-22 -3.5l-57 50q-11 9 0 21.5z
M609.5 620.5q4.5 5.5 12.5 5t14 -6.5l84 -73q6 -6 7.5 -13.5t-3 -12.5t-12 -5t-14.5 6l-84 73q-6 6 -7.5 13.5t3 13z" />
    <glyph glyph-name="xingyue" unicode="&#xe799;" 
d="M445 285zM137 285q0 -128 90.5 -218.5t218 -90.5t218 90.5t90.5 218.5t-90.5 218t-218 90t-218 -90t-90.5 -218zM445.5 -31q-130.5 0 -223.5 92.5t-93 223.5t93 223.5t223.5 92.5t223.5 -92.5t93 -223.5t-93 -223.5t-223.5 -92.5zM445.5 586q-124.5 0 -212.5 -88.5
t-88 -212.5t88 -212.5t212.5 -88.5t212.5 88.5t88 212.5t-88 212.5t-212.5 88.5zM324 231zM292 231q0 -13 9.5 -22t22 -9t22 9t9.5 22t-9.5 22t-22 9t-22 -9t-9.5 -22zM323.5 193q-15.5 0 -26.5 11t-11 26.5t11 26.5t26.5 11t26.5 -11t11 -26.5t-11 -26.5t-26.5 -11z
M323.5 255q-10.5 0 -17.5 -7t-7 -17.5t7 -17.5t17.5 -7t17.5 7t7 17.5t-7 17.5t-17.5 7zM252 403zM233 403q0 -8 5.5 -13.5t14 -5.5t14 5.5t5.5 13.5t-5.5 14t-14 6t-14 -6t-5.5 -14zM252.5 377q-10.5 0 -18.5 7.5t-8 18.5t8 18.5t18.5 7.5t18.5 -7.5t8 -18.5t-8 -18.5
t-18.5 -7.5zM252.5 417q-5.5 0 -9.5 -4t-4 -9.5t4 -9.5t9.5 -4t9.5 4t4 9.5t-4 9.5t-9.5 4zM501 266zM488 266q0 -5 4 -9t9 -4t9 4t4 9t-4 9t-9 4t-9 -4t-4 -9zM501 247q-8 0 -13.5 5.5t-5.5 13.5t5.5 13.5t13.5 5.5t13.5 -5.5t5.5 -13.5t-5.5 -13.5t-13.5 -5.5zM501 272
q-6 0 -6 -6t6 -6t6 6t-6 6zM382 491zM370 490.5q0 -4.5 3.5 -8t8.5 -3.5t8 3.5t3 8t-3 8t-8 3.5t-8.5 -3.5t-3.5 -8zM381.5 473q-7.5 0 -12.5 5t-5 12.5t5 13t12.5 5.5t13 -5.5t5.5 -13t-5.5 -12.5t-13 -5zM382 496q-5 0 -5 -5.5t5 -5.5t5 5.5t-5 5.5zM577 449q-2 8 -10 9
l-32 5l-14 28q-4 7 -12 7t-12 -7l-14 -28l-32 -5q-8 -1 -11 -9v-4q0 -5 3 -9l24 -23l-5 -32q-2 -8 5 -12.5t14 -0.5l28 14l28 -14q3 -2 6 -2q4 0 8 2q6 5 5 13l-5 32l23 23q4 4 4 9q0 2 -1 4zM543 360q-5 0 -9 2l-25 13l-25 -13q-11 -6 -21 1t-8 19l5 29l-21 21q-6 5 -6 13
q0 3 1 7q4 11 16 12l29 5l12 25q6 11 18 11t18 -11l12 -25l29 -5q11 -1 15 -12q1 -3 1 -7q0 -8 -5 -13l-21 -21l4 -29q3 -12 -8 -19q-5 -3 -11 -3v0zM509 390l31 -17q4 -2 7 0.5t3 6.5l-6 35l26 26q3 3 1.5 6.5t-5.5 4.5l-36 5l-15 31q-2 4 -6.5 4t-5.5 -4l-16 -31l-35 -5
q-4 -1 -5.5 -4.5t1.5 -6.5l26 -26l-6 -35q-1 -4 2.5 -6.5t7.5 -0.5zM543 568q70 -36 102.5 -113.5t22.5 -167.5q-5 -45 -22.5 -84t-41.5 -65.5t-53.5 -48.5t-60 -34t-60.5 -22t-54 -12t-41.5 -4t-22.5 2q26 -14 66 -23.5t70 -9.5v0q124 0 211.5 87.5t87.5 211.5
q0 97 -57 175t-147 108zM677 299zM652 298.5q0 -10.5 7.5 -18t18 -7.5t18 7.5t7.5 18t-7.5 18.5t-18 8t-18 -8t-7.5 -18.5zM677.5 267q-13.5 0 -23 9.5t-9.5 22.5t9.5 22.5t23 9.5t22.5 -9.5t9 -22.5t-9 -22.5t-22.5 -9.5zM677 318q-8 0 -13.5 -5.5t-5.5 -13.5t5.5 -13.5
t13.5 -5.5t14 5.5t6 13.5t-6 13.5t-14 5.5zM383 664q41 9 82 9q102 0 189 -50.5t137.5 -137.5t50.5 -189q0 -86 -36 -161t-98 -128l10 -21q69 56 108 137t39 173q0 108 -53.5 200.5t-146 146t-200.5 53.5q-47 0 -92 -11zM337 710zM256 710q0 -34 23.5 -58t57.5 -24t58 24
t24 58t-24 58t-58 24t-57.5 -24t-23.5 -58zM337 620q-37 0 -63 26.5t-26 63.5t26 63t63 26t63.5 -26t26.5 -63t-26.5 -63.5t-63.5 -26.5zM337.5 784q-30.5 0 -52.5 -22t-22 -52.5t22 -52t52.5 -21.5t52 21.5t21.5 52t-21.5 52.5t-52 22zM361 780q18 -9 26 -28t5 -41
q-3 -28 -24 -44.5t-39.5 -20t-24.5 -1.5q16 -8 34 -8v0q30 0 52 21.5t22 51.5q0 24 -14 43.5t-37 26.5zM952 421zM911 421q0 -17 12 -28.5t28.5 -11.5t28.5 11.5t12 28.5t-12 29t-28.5 12t-28.5 -12t-12 -29zM951.5 373q-19.5 0 -34 14t-14.5 34t14.5 34t34 14t34 -14
t14.5 -34t-14.5 -34t-34 -14zM951.5 454q-13.5 0 -23 -9.5t-9.5 -23t9.5 -23.5t23 -10t23 10t9.5 23.5t-9.5 23t-23 9.5zM42 478zM11 477.5q0 -12.5 9 -21.5t21.5 -9t21.5 9t9 21.5t-9 21.5t-21.5 9t-21.5 -9t-9 -21.5zM725 13zM695 13.5q0 -12.5 9 -21.5t21.5 -9t21.5 9
t9 21.5t-9 21t-21.5 8.5t-21.5 -8.5t-9 -21zM777 688zM747 688.5q0 -12.5 9 -21.5t21.5 -9t21.5 9t9 21.5t-9 21.5t-21.5 9t-21.5 -9t-9 -21.5z" />
    <glyph glyph-name="yueqiu" unicode="&#xe79a;" 
d="M509 -94q-98 0 -187.5 38.5t-154.5 103t-103 154t-38 187.5t38 187.5t103 154.5t154.5 103t187.5 38t187.5 -38t154.5 -103t103 -154.5t38 -187.5t-38 -187.5t-103 -154t-154.5 -103t-187.5 -38.5zM509 853q-94 0 -180 -37t-148 -99t-99 -148t-37 -180t37 -180t99 -148
t148 -99t180 -37t180 37t148 99t99 148t37 180t-37 180t-99 148t-148 99t-180 37zM507 389zM173 389.5q0 -90.5 44.5 -167.5t121.5 -122t167.5 -45t167.5 45t122 122t45 167.5t-45 167.5t-122 121.5t-167.5 44.5t-167.5 -44.5t-121.5 -121.5t-44.5 -167.5zM507 46
q-93 0 -172.5 46t-125.5 125t-46 172t46 172.5t125.5 125.5t172.5 46t172 -46t125 -125.5t46 -172.5t-46 -172t-125 -125t-172 -46zM507 713q-88 0 -162.5 -43.5t-118 -118t-43.5 -162.5t43.5 -162.5t118 -118t162.5 -43.5t162.5 43.5t118 118t43.5 162.5t-43.5 162.5
t-118 118t-162.5 43.5zM675 474zM589 474.5q0 -35.5 25.5 -60.5t61 -25t60.5 25t25 60.5t-25 60.5t-60.5 25t-61 -25t-25.5 -60.5zM675 381q-13 0 -26 3q-15 5 -31.5 18t-24.5 27q-12 21 -12 45q0 13 4 26q8 30 33.5 49t56.5 19q13 0 26 -3q15 -5 31.5 -18t24.5 -27
q12 -21 12 -45q0 -14 -4 -26q-8 -30 -33.5 -49t-56.5 -19zM675 552q-26 0 -46.5 -15.5t-28.5 -40.5q-3 -11 -3 -22q0 -20 10 -37q7 -12 20.5 -23t26.5 -14q10 -3 21 -3q26 0 47 15.5t28 40.5q3 11 3 22q0 20 -10 37q-7 12 -20.5 22.5t-26.5 14.5q-10 3 -21 3zM352 471z
M304 471q0 -20 14 -34t34.5 -14t34.5 14t14 34t-14 34.5t-34.5 14.5t-34.5 -14.5t-14 -34.5zM352 414q-7 0 -15 3q-9 2 -19 10t-15 17q-7 12 -7 27q0 8 2 16q5 18 20 29.5t34 11.5q8 0 16 -2q23 -7 34 -27q7 -13 7 -28q0 -8 -2 -15q-5 -19 -20.5 -30.5t-34.5 -11.5zM352 512
q-12 0 -23.5 -9t-14.5 -21q-2 -5 -2 -11q0 -10 5 -19q8 -15 24 -20q16 -4 31 4t19 24q2 6 2 11q0 11 -5 20q-8 15 -24 19q-6 2 -12 2zM486 375zM456 375q0 -12 9 -20.5t21 -8.5t20.5 8.5t8.5 20.5t-8.5 20.5t-20.5 8.5t-21 -8.5t-9 -20.5zM486 338q-16 0 -27 10.5t-11 26.5
q0 5 2 10q4 14 17.5 22t28.5 4q15 -5 22.5 -18.5t2.5 -27.5q-3 -12 -13 -19.5t-22 -7.5zM486 396q-7 0 -13 -4.5t-8 -10.5v-6q0 -7 4.5 -13t10.5 -7q8 -3 15.5 1.5t10.5 12.5q1 3 1 6q0 8 -6.5 14.5t-14.5 6.5zM715 291zM696 291.5q0 -7.5 5.5 -13t13 -5.5t13 5.5t5.5 13
t-5.5 13t-13 5.5t-13 -5.5t-5.5 -13zM715 265q-11 0 -19 7.5t-8 18.5q0 4 1 8q3 10 12.5 15.5t20.5 2.5q10 -3 16 -13q3 -6 3 -13q0 -3 -1 -7q-2 -8 -9.5 -13.5t-15.5 -5.5zM715 301q-8 0 -10 -7q-1 -1 -1 -3q0 -7 8 -9q9 -3 12 7q1 1 1 2q0 3 -2 5q-3 5 -8 5v0zM494 189z
M449 189q0 -19 13 -32t32 -13t32 13t13 32t-13 32t-32 13t-32 -13t-13 -32zM494 136q-8 0 -15 2q-21 6 -32 25q-7 12 -7 26q0 7 3 14q4 18 18.5 28.5t32.5 10.5q7 0 14 -2q22 -6 32 -25q7 -12 7 -26q0 -8 -2 -15q-5 -17 -19 -27.5t-32 -10.5zM494 226q-13 0 -22.5 -7.5
t-13.5 -19.5q-1 -5 -1 -10q0 -10 4 -18q8 -14 23 -18q5 -1 10 -1q12 0 22 7.5t13 19.5q2 5 2 10q0 10 -5 18q-7 13 -22 18q-5 1 -10 1zM607 692q-87 16 -171 -15.5t-140 -104.5q-53 -69 -63.5 -153.5t22 -163t100.5 -130.5q42 -32 91 -49q-31 6 -71 23.5t-66 37.5
q-68 52 -100.5 130.5t-22 163t63.5 153.5q64 83 163.5 112t193.5 -4z" />
    <glyph glyph-name="yuhangyuan" unicode="&#xe79b;" 
d="M515 386zM46 386.5q0 -95.5 37 -182.5t100 -149.5t149.5 -100t182 -37.5t182.5 37.5t149.5 100t99.5 149.5t37 182.5t-37 182t-99.5 149.5t-149.5 100t-182.5 37t-182 -37t-149.5 -100t-100 -149.5t-37 -182zM514.5 -92q-97.5 0 -186 38t-152.5 102t-102 152.5t-38 185.5
t38 186t102 153t152.5 102t186 38t186 -38t152.5 -102t102 -153t38 -186t-38 -185.5t-102 -152.5t-152.5 -102t-186 -38zM514.5 845q-93.5 0 -178.5 -36.5t-146.5 -98t-97.5 -146.5t-36 -178t36 -178t97.5 -146.5t146.5 -98t178.5 -36.5t178.5 36.5t146.5 98t98 146.5
t36.5 178t-36.5 178t-98 146.5t-146.5 98t-178.5 36.5zM515 -83q110 0 200 49l-4 65q0 4 -1.5 11.5t-8 27.5t-16.5 37t-29.5 33.5t-44.5 23.5q-1 0 -4 -2t-8.5 -5t-12.5 -6t-18 -5t-22 -1l-27 7q-1 0 -4 -1.5t-4 -1.5t-7.5 6t-7.5 6l-14 -6q-11 -1 -22 0t-18.5 2.5
t-13.5 3.5l-9 3l-3 1q-26 -7 -45 -23.5t-28.5 -34t-15.5 -36.5t-7.5 -28t-1.5 -12v-69q83 -45 197 -45zM515 -92q-116 0 -202 46l-5 3l1 74q0 6 1 15t7.5 30t17 38.5t31 35t47.5 25.5h3q2 0 6 -1q27 -11 58 -10l14 7l2 -1q5 0 14 -8l2 -2q4 2 7 2h1l27 -7q30 -2 56 16
q4 3 8 3h2q27 -8 48 -25.5t31.5 -34.5t17.5 -38t8.5 -30t2.5 -14l4 -71l-5 -3q-93 -50 -205 -50zM328 -32q79 -41 187 -41q104 0 190 45l-4 58q0 4 -1.5 11t-7 25.5t-14.5 33.5t-26.5 31t-39.5 23q-30 -21 -67 -19l-2 1l-23 6q-5 -3 -9 -3q-5 0 -14 9q-1 0 -1.5 0.5
t-0.5 1.5l-13 -5q-35 -2 -67 10q-22 -7 -39.5 -22.5t-26 -31t-14 -34t-6.5 -26t-1 -11.5v-62zM594 -21q0 -6 -6 -6h-147v0q-6 0 -6 6v99q0 6 6 6h147q6 0 6 -6v-99zM441 -35v0q-5 0 -9.5 4t-4.5 10v99q0 6 4 10t10 4h147q6 0 10 -4t4 -10v-99q0 -6 -4 -10t-10 -4h-147z
M443 76v-95h143v95h-143zM467 56h41v-17h-41v17zM521 56h42v-17h-42v17zM467 27h96v-26h-96v26zM372 166l303 6q53 39 86.5 100t38.5 128q2 15 1 29q-2 115 -87.5 195t-204 78t-201 -85t-80.5 -199q1 -74 41 -142t103 -110zM370 157l-3 1q-66 44 -106.5 114.5t-42.5 145.5
q-2 119 83.5 205.5t207.5 88.5h6q120 0 207 -83t89 -200v-5q0 -13 -1 -25q-5 -69 -39.5 -131.5t-89.5 -103.5l-3 -2zM515 692h-5q-115 -2 -194.5 -82t-77.5 -192q1 -69 38.5 -135t98.5 -107l296 6q51 38 83 96t37 123q1 14 1 28q-2 109 -83.5 186t-193.5 77zM382 184l274 -1
q46 38 74.5 96t27.5 116q-2 96 -74.5 162.5t-173 65t-170.5 -71t-68 -165.5q1 -58 31 -112.5t79 -89.5zM659 174h-280l-2 2q-52 37 -83 93.5t-32 116.5q-2 100 71 172t177 74h5q103 0 177 -69.5t75 -167.5q2 -59 -27.5 -119.5t-77.5 -99.5zM386 193h266q44 37 70.5 92.5
t25.5 109.5q-2 90 -70 154t-163 64h-4q-97 -2 -164 -68.5t-66 -158.5q1 -54 29 -106t76 -87zM677 162.5q0 -11.5 -4 -20t-10 -8.5h-297q-6 0 -10 8.5t-4 20t4 20t10 8.5h297q6 0 10 -8.5t4 -20zM663 125h-297q-10 0 -16.5 10.5t-6.5 27t6.5 27.5t16.5 11h297q11 0 17.5 -11
t6.5 -27.5t-6.5 -27t-17.5 -10.5zM662 182l-296 -1l-0.5 -1t-1 -2.5t-1 -3.5t-1 -5t-0.5 -6q0 -16 5 -19h295q5 5 5 19q0 15 -5 19zM563.5 464q9.5 10 17.5 3l48 -42q9 -8 0 -18t-18 -2l-48 41q-9 8 0.5 18zM595 514.5q9 10.5 23 -1.5l69 -60q13 -12 4 -22.5t-22 1.5l-70 60
q-13 12 -4 22.5z" />
    <glyph glyph-name="aite" unicode="&#xe701;" 
d="M566 193q-35 -40 -76 -63q-42 -24 -84 -24q-46 0 -90 27t-71 83.5t-27 123.5q0 82 42 165t105 125t123 42q45 0 86 -24t71 -72l17 81h94l-75 -349q-16 -73 -16 -81q0 -14 11 -24q10 -10 25 -10q28 0 73 31q59 42 94 112q34 70 34 144q0 87 -44 163q-45 76 -133 120
q-88 46 -194 46q-122 0 -223 -57t-156 -164q-56 -106 -56 -228q0 -128 56 -220q55 -92 160 -136q104 -44 232 -44q137 0 229 46t137 112h95q-27 -55 -91.5 -112t-153.5 -90t-214 -33q-116 0 -213.5 30t-165.5 89q-69 60 -104 137q-44 99 -44 213q0 126 52 242
q64 141 181 216q116 75 283 75q129 0 232 -53t162 -158q50 -90 50 -195q0 -151 -106 -268q-95 -105 -207 -105q-36 0 -58 11t-33 31q-6 13 -9 45zM314 334q0 -72 33.5 -111.5t77.5 -39.5q29 0 62 18q32 17 61 51t48 88q19 53 19 105q0 71 -35 110t-86 39q-33 0 -62 -17
t-57 -54.5t-44 -90.5q-17 -54 -17 -98z" />
    <glyph glyph-name="icon110" unicode="&#xe621;" horiz-adv-x="1025" 
d="M511 -73q-147 0 -276.5 63.5t-219.5 178.5q-18 23 -14.5 51.5t26.5 46.5t51.5 14.5t46.5 -26.5q70 -90 171 -139t215 -49t216 50t172 141q17 23 46 27t52 -13.5t26.5 -46.5t-13.5 -52q-91 -117 -221.5 -181.5t-277.5 -64.5v0zM196 491q-44 0 -74.5 31t-30.5 74v140
q0 43 30.5 74t74 31t74.5 -31t31 -74v-140q0 -43 -31 -74t-74 -31v0zM825 491q-43 0 -74 31t-31 74v140q0 43 31 74t74.5 31t74 -31t30.5 -74v-140q0 -43 -30.5 -74t-74.5 -31v0z" />
    <glyph glyph-name="advance" unicode="&#xe86e;" 
d="M983 384l-279 -235v470zM213 469h86v-170h-86v170zM85 469h86v-170h-86v170zM341 469h86v-170h-86v170zM469 469h299v-170h-299v170z" />
    <glyph glyph-name="camera" unicode="&#xe877;" 
d="M723 638h-420l72 109q13 19 37 19h205q23 0 36 -19zM299 661h-128v39q0 11 7 18t18 7h77q11 0 18.5 -7t7.5 -18v-39zM853 0h-682q-36 0 -61 25t-25 60v512q0 36 25 61t61 25h682q36 0 61 -25t25 -61v-512q0 -35 -25 -60t-61 -25v0zM512 341zM256 341q0 -106 75 -181
t181 -75t181 75t75 181t-75 181t-181 75t-181 -75t-75 -181zM512 341zM320 341.5q0 -79.5 56.5 -136t135.5 -56.5t135.5 56.5t56.5 136t-56.5 135.5t-135.5 56t-135.5 -56t-56.5 -135.5zM619 405q-41 47 -103 47t-102 -47q-8 -8 -7 -19t9 -19t19 -7t19 9q24 27 62 27t62 -27
q9 -8 21 -8q10 0 20 6q6 7 6.5 18.5t-6.5 19.5zM192 608v0q0 -13 12.5 -22.5t30 -9.5t30 9.5t12.5 22.5v0v0q0 13 -12.5 22.5t-30 9.5t-30 -9.5t-12.5 -22.5v0z" />
    <glyph glyph-name="checkmark" unicode="&#xe87a;" 
d="M866 638l-503 -504l-205 205l-60 -62l265 -262l563 563z" />
    <glyph glyph-name="expand" unicode="&#xe892;" 
d="M917 531l-66 66l-339 -339l-339 339l-66 -66l405 -403z" />
    <glyph glyph-name="faq" unicode="&#xe894;" 
d="M320 43h491l128 -128v448q0 35 -25 60t-61 25h-533q-35 0 -60 -25t-25 -60v-235q0 -35 25 -60t60 -25zM614 196h-76l-15 -45h-47l79 214h40l79 -214h-47zM548 230h54l-26 81zM704 363h-491l-128 -128v490q0 36 25 61t61 25h533q35 0 60 -25t25 -61v-277q0 -35 -25 -60
t-60 -25zM542 593q0 -28 -10.5 -53t-28.5 -37l37 -27l-28 -26l-47 36q-2 0 -8 -1t-9 -1q-19 0 -38 7q-15 5 -30 21q-12 12 -19 34q-7 19 -7 45v8q0 26 7 45q7 23 19 34q17 17 30 22q16 6 38 6q19 0 38 -6q15 -6 30 -22q12 -11 19 -34q7 -19 7 -45v-6zM495 604q0 35 -13 51
q-11 17 -34 17q-24 0 -34 -17q-13 -19 -13 -51v-11q0 -13 4.5 -30t8.5 -21q7 -10 15 -13q13 -4 19 -4q24 0 34 17q13 19 13 53v9z" />
    <glyph glyph-name="flash_on" unicode="&#xe89a;" 
d="M704 427h-201l137 362h-235l-128 -448h184l-98 -405z" />
    <glyph glyph-name="gallery" unicode="&#xe89b;" 
d="M875 0h-598q-35 0 -60 25t-25 60v427q0 35 25 60t60 25h598q35 0 60 -25t25 -60v-427q0 -35 -25 -60t-60 -25v0zM747 128h-598q-35 0 -60 25t-25 60v427q0 35 25 60t60 25h598q35 0 60 -25t25 -60v-427q0 -35 -25 -60t-60 -25zM640 555zM576 554.5q0 -26.5 19 -45
t45 -18.5t45 18.5t19 45t-19 45.5t-45 19t-45 -19t-19 -45.5zM363 514l-192 -279h384zM597 395l-128 -160h256z" />
    <glyph glyph-name="import" unicode="&#xe8a2;" 
d="M149 43v682q0 36 25 61t61 25h512q35 0 60 -25t25 -61v-682q0 -36 -25 -61t-60 -25h-512q-36 0 -61 25t-25 61zM284 384l228 192v-384zM405 448h491v-128h-491v128z" />
    <glyph glyph-name="next" unicode="&#xe8b3;" 
d="M365 789l-66 -66l339 -339l-339 -339l66 -66l403 405z" />
    <glyph glyph-name="ok1" unicode="&#xe8b6;" 
d="M512 384zM64 384q0 -185 131.5 -316.5t316.5 -131.5t316.5 131.5t131.5 316.5t-131.5 316.5t-316.5 131.5t-316.5 -131.5t-131.5 -316.5zM738 585l-290 -291l-119 120l-60 -60l179 -179l350 350z" />
    <glyph glyph-name="previous" unicode="&#xe8bf;" 
d="M659 -21l66 66l-339 339l339 339l-66 66l-403 -405z" />
    <glyph glyph-name="baseball" unicode="&#xe8de;" 
d="M155 125v0q0 28 -14.5 61t-34.5 52v0q-18 -20 -30.5 -53t-12.5 -60v0q0 -65 43 -114v1q20 19 34.5 52t14.5 61v0zM342 263q-46 36 -104.5 36t-105.5 -36q60 -56 60 -138t-60 -139q47 -35 105.5 -35t104.5 35q-59 57 -59 139t59 138zM320 125q0 -67 49 -113v-1
q18 21 30 54t12 60v0q0 64 -42 113v0q-20 -19 -34.5 -52t-14.5 -61v0zM132 263q-14 -11 -26 -25v0q20 -19 34.5 -52t14.5 -61v0v0q0 -28 -14.5 -61t-34.5 -52v-1q11 -13 26 -25q60 57 59.5 139t-59.5 138zM369 11v1q-20 19 -34.5 52t-14.5 61v0q0 67 49 113v0q-12 14 -27 25
q-59 -56 -59 -138t59 -139q15 12 27 25zM1003 -8l-104 -104q-16 -16 -39 -16t-39 16t-16 39t16 39l104 103q16 16 39 16t39 -16t16 -38.5t-16 -38.5zM906 50l-671 791q-28 33 -68 47t-80 4q-30 -8 -50 -27q-33 -32 -32 -92q2 -66 55 -110l791 -668zM482 306l369 -311l55 55
l-312 367z" />
    <glyph glyph-name="badminton" unicode="&#xe8df;" 
d="M864 -57h-54v144h54q30 0 51 -21t21 -51t-21 -51t-51 -21zM612 66l198 -33v54l-210 70h-4q-3 0 -6 -2l-50 -41l40 -34l-65 -65l65 -66l-40 -33l50 -42q4 -3 9 -2l211 71v54l-198 -33q-1 5 -5 9l-41 42l41 41q4 4 5 10zM48 -82h-2h-1h1h2zM59 -82q-4 -1 -6 -1q2 0 6 1z
M71 -75zM845 352q107 107 124 240q17 128 -60 205q-63 63 -165 63q-73 0 -146.5 -33t-134.5 -94q-69 -70 -102.5 -156t-21.5 -166q13 -89 -33 -160l-2 -3l-2 -3l-3 -3q-7 -7 -4 -15l11 -21l21 -11v0h2q8 0 13 5l3 2l3 2q20 13 51.5 22.5t55.5 9.5h1q23 0 46 -5q30 -7 60 -7
h1q74 0 147.5 33.5t134.5 94.5zM53 -83v0v0q-2 0 -5 1q4 -1 5 -1zM63 -81q-1 0 -2 -0.5t-2 -0.5q1 0 2 0.5t2 0.5zM45 -82zM608 191q11 1 23 4q6 1 7 1l18 4q1 0 2.5 0.5t2.5 0.5q11 4 22 7l6 2q9 3 17 7q2 0 8 3q7 3 15 6q5 3 7 4q8 4 17 8q0 1 2 2t3 2q12 6 22 12
q1 1 2 1.5t2 1.5q9 6 18 11q1 1 3.5 3t3.5 3q11 7 21 16q7 5 14 12q1 0 3 2l3 3q11 10 20 19q76 76 112 169.5t23.5 181t-71.5 145.5q-10 11 -21 20q-2 1 -5 3l-3 2q-8 6 -16 11q-3 2 -10 5q-8 5 -16 8q-7 3 -10 5l-18 6q-1 0 -4 1.5t-5 1.5q-14 4 -28 7h-1.5h-0.5
q-14 2 -28 3q-2 0 -5.5 0.5t-4.5 0.5h-16h-6h-6q-15 -1 -29 -3h-2.5h-2.5q-16 -2 -31 -6q-14 -3 -31 -8l-4 -1q-18 -6 -36 -14q-16 -6 -29 -13q-1 0 -2 -1t-2 -1q-14 -7 -28 -16q-1 0 -2 -0.5t-1 -1.5q-18 -10 -34 -22q-14 -11 -27 -22q-1 -1 -2.5 -2t-1.5 -2
q-14 -12 -28 -25q-77 -77 -112 -171.5t-22 -180.5q11 -76 -27 -135l-2 -3q-11 -11 -14.5 -27.5t3.5 -29.5l48 -48q3 -2 7 -3h3q3 -1 6 -1h3q5 0 9 1h1q4 1 9 2q0 1 2 2q4 1 7 3l2 1q4 3 7 6q8 5 19 10q1 1 5 3l16 6q1 0 2 0.5t2 0.5q10 3 20 4q1 0 2.5 0.5t2.5 0.5q8 1 17 1
h1h1.5h1.5h1q5 0 12 -1h3h3q10 -1 18 -3q19 -4 38 -6q17 -2 31 -2q10 0 22 1h3.5h3.5q7 1 16 2zM456 236q-59 0 -108 -32l-3 -2l-3 -3q-5 -4 -13 -4h-2v0v0l-21 11l-11 21q-3 8 4 15l3 3l2 3l2 3q46 71 33 160q-12 79 21.5 165.5t102.5 156.5q61 60 134.5 93.5t146.5 33.5
q102 0 165 -63q77 -77 60 -205q-17 -133 -124 -241q-61 -60 -134.5 -93.5t-147.5 -33.5h-1q-30 0 -60 7q-23 5 -46 5zM311 163l-48 48v-0.5v-0.5l-152 -152l46 -47l153 152h0.5h0.5zM142 89l-119 -119q-7 -7 -7 -16.5t7 -16.5l14 -14q7 -7 16.5 -7t15.5 7l120 120zM677 500
h-72v36h24q8 0 13 5.5t5 13t-5 12.5t-13 5h-24v72q0 8 -5 13t-12.5 5t-12.5 -5t-5 -13v-72h-36v42q0 8 -5.5 13t-13 5t-12.5 -5t-5 -13v-42h-72q-8 0 -13 -5t-5 -12.5t5 -13t13 -5.5h72v-36h-36q-8 0 -13 -5t-5 -12.5t5 -12.5t13 -5h36v-54q0 -8 5 -13t12.5 -5t13 5t5.5 13
v54h36v-36q0 -8 5 -13t12.5 -5t12.5 5t5 13v36h72q8 0 13 5t5 12.5t-5 12.5t-13 5zM534 500v36h36v-36h-36zM432 249q-29 0 -50.5 26t-21.5 64q0 7 5.5 12.5t13 5.5t12.5 -5.5t5 -12.5q0 -22 11 -38t25 -16q8 0 13 -5.5t5 -13t-5 -12.5t-13 -5zM810 33l-198 33q-1 -6 -5 -10
l-41 -41l41 -42q4 -4 5 -9l198 33v36z" />
    <glyph glyph-name="basketball-1" unicode="&#xe8e0;" 
d="M512 384zM0 384q0 -139 68.5 -257t186.5 -186.5t257 -68.5t257 68.5t186.5 186.5t68.5 257t-68.5 257t-186.5 186.5t-257 68.5t-257 -68.5t-186.5 -186.5t-68.5 -257zM13 344q50 47 122.5 60.5t131.5 -13.5q-45 -63 -88.5 -160.5t-60.5 -172.5q12 -15 27 -30q4 3 5 9
q17 75 60 173t88 161q72 -56 64 -172v-1v-1q4 -83 49 -155t122 -117q47 -27 100 -38q45 10 87 29q-86 -6 -169 41q-68 40 -108.5 103.5t-43.5 136.5q9 137 -79 204q40 54 88 101q82 -76 189.5 -190t178.5 -200l78 -96l29 23l-79 96q-71 86 -179 201t-190 191q38 34 80 64
q68 -85 202 -76q62 -3 117.5 -35.5t95.5 -88.5q63 -89 60 -191q17 44 26 92q-7 27 -23.5 62.5t-32.5 57.5q-45 64 -108.5 100.5t-134.5 38.5h-1h-1q-113 -7 -169 61q59 40 151 79.5t162 54.5q6 1 9 6q-14 14 -30 27q-69 -17 -161 -56.5t-152 -79.5q-26 54 -17.5 121.5
t48.5 119.5l7 9q-25 3 -51 3v-11q-38 -61 -43 -132.5t26 -130.5q-45 -33 -87 -71q-89 83 -184 159l-60 49q-14 -12 -26 -26l63 -51q93 -75 181 -156q-51 -49 -93 -105q-5 2 -7 3q-65 30 -142.5 19t-136.5 -59h-3q0 -25 2 -50z" />
    <glyph glyph-name="basketball-jersey" unicode="&#xe8e1;" 
d="M821 896l-85 -11q-12 -1 -17 -12q-50 -102 -121 -151q-16 -11 -41 -18.5t-45 -7.5t-45 7.5t-41 18.5q-71 50 -121 151q-5 11 -17 12l-85 11q-13 1 -21 -10t-1 -23q16 -31 30.5 -67.5t26 -88t10.5 -96.5t-22.5 -88t-66.5 -68v-583h706v583q-45 25 -66.5 68t-22.5 88
t10.5 96.5t26 88t30.5 67.5q7 12 -1 23t-21 10zM632 331h-38q-32 0 -53 20t-21 50.5t21 50.5t53 20h38q32 0 53 -20t21 -50.5t-21 -50.5t-53 -20zM594 437q-16 0 -27.5 -9.5t-11.5 -26t11.5 -26t27.5 -9.5h38q16 0 27.5 9.5t11.5 26t-11.5 26t-27.5 9.5h-38zM632 225h-38
q-32 0 -53 20.5t-21 50.5t21 50t53 20h38q32 0 53 -20t21 -50t-21 -50.5t-53 -20.5zM594 331q-16 0 -27.5 -9.5t-11.5 -26t11.5 -26t27.5 -9.5h38q16 0 27.5 9.5t11.5 26t-11.5 26t-27.5 9.5h-38zM430 331h-38q-32 0 -53 20t-21 50.5t21 50.5t53 20h38q32 0 53 -20t21 -50.5
t-21 -50.5t-53 -20zM392 437q-16 0 -27.5 -9.5t-11.5 -26t11.5 -26t27.5 -9.5h38q16 0 27.5 9.5t11.5 26t-11.5 26t-27.5 9.5h-38zM430 225h-38q-32 0 -53 20.5t-21 50.5t21 50t53 20h38q32 0 53 -20t21 -50t-21 -50.5t-53 -20.5zM392 331q-16 0 -27.5 -9.5t-11.5 -26
t11.5 -26t27.5 -9.5h38q16 0 27.5 9.5t11.5 26t-11.5 26t-27.5 9.5h-38zM159 455v-583h88v725q-6 -97 -88 -142zM777 596v0v-724h88v583q-81 45 -88 141zM598 722q-16 -11 -41 -18.5t-45 -7.5t-45 7.5t-41 18.5q-64 44 -112 135q88 -44 207 -44q101 0 184 33
q-48 -83 -107 -124z" />
    </font>
</defs>
</svg>
